<svg id="Layer_1" data-name="Layer 1" xmlns="http://www.w3.org/2000/svg" viewBox="0 0 243.06 72.33"><defs><style>.cls-1{fill:#222220;}.cls-2{fill:#fff;}.cls-3{fill:#fce527;}</style></defs><title>12</title><path class="cls-1" d="M101.24,35.9H93V30.82h22.48V35.9h-8.24v14h-6Z" transform="translate(0 0)"/><path class="cls-1" d="M117.6,49.86v-19h6v19Z" transform="translate(0 0)"/><path class="cls-1" d="M143.11,41.26V30.82h5.52v19h-5.12L133.23,39.34V49.86h-5.52v-19h5.36Z" transform="translate(0 0)"/><path class="cls-1" d="M158.62,49.86h-5.8v-19h5.8V38h1.6l7-7.16h7.28l-9.28,9.12,9.64,9.92h-7.72l-6.92-7.2h-1.6Z" transform="translate(0 0)"/><path class="cls-1" d="M199.37,40.38c0,5.68-4.68,10.08-12.44,10.08s-12.48-4.4-12.48-10.08,4.68-10.08,12.48-10.08S199.37,34.7,199.37,40.38Zm-6.08,0c0-3.12-2.52-5.4-6.36-5.4s-6.36,2.28-6.36,5.4,2.48,5.44,6.36,5.44S193.29,43.5,193.29,40.38Z" transform="translate(0 0)"/><path class="cls-1" d="M208,35.66V39.1h12.8v4H208v6.76h-5.8v-19h19.08v4.84Z" transform="translate(0 0)"/><path class="cls-1" d="M229.78,35.66V39.1h12.8v4h-12.8v6.76H224v-19h19.08v4.84Z" transform="translate(0 0)"/><path class="cls-2" d="M79.93,33.83,81,30.47l-3.48.11A8.19,8.19,0,0,1,73,29c.16,0,.31,0,.47,0a5.6,5.6,0,0,0,5-3.12L80,22.61a26.94,26.94,0,0,1-3.59-.21,5.57,5.57,0,0,1-2.93-1.77,5.54,5.54,0,0,0-4-1.75,5.78,5.78,0,0,0-1.75.28,6.44,6.44,0,0,0,.2-.82,7.45,7.45,0,0,0-1.52-5.47L63.77,9.62l-1.62,3.8A3.4,3.4,0,0,1,61,14.77a7.06,7.06,0,0,0-1.92-3.58,8.63,8.63,0,0,0-6.24-2.6,7.8,7.8,0,0,0-1.22.09l-3.16.62a10.87,10.87,0,0,1,1.28-3l1.74-2.71L47.1,4l-1.4-3L43,2.47,40.5,0,38,2.47,35.3,1.07,33.9,4l-4.38-.5,1.74,2.72a10.73,10.73,0,0,1,1.28,3l-3-.59-.1,0a8,8,0,0,0-1.26-.09,8.62,8.62,0,0,0-6.24,2.6A7.07,7.07,0,0,0,20,14.77a3.35,3.35,0,0,1-1.13-1.31L17.24,9.63l-2.66,3.26a7.5,7.5,0,0,0-1.49,5.45,6.74,6.74,0,0,0,.2.82,5.71,5.71,0,0,0-1.75-.28,5.54,5.54,0,0,0-4,1.75A5.66,5.66,0,0,1,4.64,22.4,20.43,20.43,0,0,1,1,22.61l1.49,3.32a5.61,5.61,0,0,0,5,3.12c.16,0,.31,0,.47,0a8.2,8.2,0,0,1-4.46,1.57L0,30.47l1.07,3.36a7,7,0,0,0,5.8,4.91,5.56,5.56,0,0,1-3,4.1L1.19,43.93l1.44,2.51a6.38,6.38,0,0,0,5.43,2.93,8.29,8.29,0,0,0,1.7-.18A18.92,18.92,0,0,0,10.28,51a6.21,6.21,0,0,1,.1,4.1l-1.3,2.73,2.91.77a8.19,8.19,0,0,0,2,.25,6.13,6.13,0,0,0,1.42-.16,6.48,6.48,0,0,0,1-.31,8.85,8.85,0,0,0,1.37,1.84c1.86,1.91,4.5,2.88,7.85,2.88h0l2.39,0-4.93,2.05L26.83,67a49.51,49.51,0,0,0,4.62,2L31,70.3l1.29.59A20.25,20.25,0,0,0,39,72.28s1,0,1.54,0,1.53,0,1.53,0a20.22,20.22,0,0,0,6.68-1.4L50,70.3,49.56,69a50,50,0,0,0,4.67-2.07l3.67-1.78-4.92-2,2.4,0c3.35,0,6-1,7.85-2.88a8.77,8.77,0,0,0,1.37-1.84,6.76,6.76,0,0,0,1,.31,6.2,6.2,0,0,0,1.42.16,8.31,8.31,0,0,0,2-.25l2.92-.77-1.27-2.68A6.16,6.16,0,0,1,70.72,51c.21-.61.38-1.23.52-1.85a8.38,8.38,0,0,0,1.71.18,6.34,6.34,0,0,0,5.44-3l1.42-2.48-2.64-1.08a5.54,5.54,0,0,1-3-4.1,7,7,0,0,0,5.8-4.92M32.77,10.45h0l0,0Z" transform="translate(0 0)"/><path class="cls-2" d="M40.5,10.3c-2.79,0-4.89.92-5.34,2l5.34,2.11,5.34-2.11c-.45-1.08-2.55-2-5.34-2" transform="translate(0 0)"/><path class="cls-2" d="M40.56,66.12h-.11a21.87,21.87,0,0,1-5.15-.66L34,69.11a25.26,25.26,0,0,0,6.55.93,25.24,25.24,0,0,0,6.55-.93L45.7,65.46a21.93,21.93,0,0,1-5.15.66" transform="translate(0 0)"/><path class="cls-2" d="M50.78,62.49a29.69,29.69,0,0,1-4.56,1.82l1.1,3a27.34,27.34,0,0,0,5.06-1.89l-2.27-.76Z" transform="translate(0 0)"/><path class="cls-2" d="M30.22,62.49l.67,2.2-2.28.76a27.46,27.46,0,0,0,5.06,1.89l1.1-3a29.75,29.75,0,0,1-4.56-1.82" transform="translate(0 0)"/><path class="cls-2" d="M40.5,6.81a12.09,12.09,0,0,1,5.76,1.39,14.21,14.21,0,0,1,.62-1.7l-.6.07-.63.07-.27-.57-.8-1.7-1.46.76-.57.29L42.09,5,40.5,3.4,38.91,5l-.45.45-.57-.29-1.47-.76-.79,1.7-.27.57-.63-.07-.6-.07a14.65,14.65,0,0,1,.62,1.7A12.11,12.11,0,0,1,40.5,6.81" transform="translate(0 0)"/><path class="cls-2" d="M72.65,26.41a2.5,2.5,0,0,0,.83.14,3.14,3.14,0,0,0,2.74-1.65,7.71,7.71,0,0,1-4.53-2.52,3,3,0,0,0-2.22-1,3.52,3.52,0,0,0-1.85.56c2.84,1.51,3.42,3.93,5,4.48" transform="translate(0 0)"/><path class="cls-2" d="M7.53,26.55a2.45,2.45,0,0,0,.82-.14c1.62-.55,2.2-3,5-4.48a3.52,3.52,0,0,0-1.84-.56,3,3,0,0,0-2.22,1A7.71,7.71,0,0,1,4.79,24.9a3.13,3.13,0,0,0,2.74,1.65" transform="translate(0 0)"/><path class="cls-2" d="M73.42,36.26h.14c3,0,4-3.18,4-3.18h-.06A10.77,10.77,0,0,1,69.39,29c-2.06-2.61-3.74-4.91-7.07-5.81L62,23.11l-.07-.33c-.09-.51.26-1,1-1.5,4.59-3,1.47-6.84,1.47-6.84S63.13,17.5,60.2,17.5H60a6.2,6.2,0,0,1-1-.1l-.54-.1a4.36,4.36,0,0,0-1.18-4.37,6.11,6.11,0,0,0-4.44-1.85,4.85,4.85,0,0,0-.88.07c1,1.33,1.75,3.53.58,4.88-1,1.17-3.49,1.22-3.49,3,0,.74.69,1.6,1.92,2.37,3.72,2.34,7.41,5.45,8.94,9.61,1.92,5.19-.24,8.64-3.33,10.61a4.34,4.34,0,0,0,2.37,1c.29,0,.56,0,.82,0a7,7,0,0,0,4.49-1.39,7.81,7.81,0,0,1-1.79,3.7,7.65,7.65,0,0,1-6.13,2.65,3.29,3.29,0,0,0,1.17,2.46,6.2,6.2,0,0,0,2.67,1s-3.49.71-3.87,5.86a7.89,7.89,0,0,1-.92,3.76h.06c8.09,0,7.88-6.94,7.88-6.94a3.92,3.92,0,0,0,2.82,2.59,3.37,3.37,0,0,0,.84.1,5.84,5.84,0,0,0,1.36-.17,8.5,8.5,0,0,1,0-6,14.16,14.16,0,0,0,.82-5A4.55,4.55,0,0,0,73,46.86h0a3.8,3.8,0,0,0,3.23-1.71c-5.39-2.24-4.86-9.47-4.86-9.47a3.88,3.88,0,0,0,2.07.57m-1.62,7.55c-2.19-1.08-3.58-4-3.92-5-.36,5.7-3.14,9.65-6.39,13.45a12.18,12.18,0,0,0-2.28,3.89A9,9,0,0,1,61,52.23c3-3.64,5.92-8.18,6.13-13.42a16,16,0,0,0-2.26-9.07,8.17,8.17,0,0,1-2.08,8.58s5.55-6.66-2.21-13.48c-3.11-2.6-6.51-4.2-8.26-5.34,6.32,2.06,9.41-.21,9.41-.21a7.68,7.68,0,0,1-6.26,1.47c.44.21.9.44,1.39.7,5.33,2.9,10.13,7.66,10.94,14.26v-.05c1.24,6.48,4,8.14,4,8.14" transform="translate(0 0)"/><path class="cls-2" d="M20.82,51a6.2,6.2,0,0,0,2.67-1,3.29,3.29,0,0,0,1.17-2.46,7.68,7.68,0,0,1-6.14-2.65,7.86,7.86,0,0,1-1.78-3.7,7,7,0,0,0,4.49,1.39c.27,0,.54,0,.83,0a4.36,4.36,0,0,0,2.37-1c-3.09-2-5.25-5.42-3.33-10.61,1.54-4.16,5.22-7.27,8.94-9.61C31.27,20.6,32,19.74,32,19c0-1.74-2.47-1.8-3.48-3-1.17-1.36-.44-3.56.57-4.88a4.83,4.83,0,0,0-.88-.07,6.11,6.11,0,0,0-4.44,1.85,4.36,4.36,0,0,0-1.18,4.37L22,17.4a6.42,6.42,0,0,1-1,.1h-.21c-2.94,0-4.25-3.07-4.25-3.07S13.45,18.27,18,21.28c.79.51,1.14,1,1,1.5l-.07.33-.33.06c-3.32.9-5,3.2-7.07,5.81a10.76,10.76,0,0,1-8.09,4.1H3.46s1,3.18,4,3.18h.14a3.89,3.89,0,0,0,2.07-.57s.53,7.23-4.86,9.47A3.8,3.8,0,0,0,8,46.86h0a4.55,4.55,0,0,0,3.79-1.66,14.2,14.2,0,0,0,.81,5,8.53,8.53,0,0,1,0,6,5.82,5.82,0,0,0,1.35.17,3.32,3.32,0,0,0,.84-.1,3.93,3.93,0,0,0,2.82-2.59s-.21,6.94,7.89,6.94h.06a7.93,7.93,0,0,1-.92-3.76C24.31,51.73,20.82,51,20.82,51m-1.3,1.26c-3.25-3.81-6-7.76-6.4-13.45-.34,1-1.72,3.91-3.91,5,0,0,2.76-1.66,4-8.14v.05c.82-6.6,5.61-11.37,10.95-14.26.49-.27.95-.49,1.39-.7a7.68,7.68,0,0,1-6.25-1.47s3.09,2.27,9.41.21c-1.75,1.14-5.15,2.74-8.25,5.34-7.77,6.82-2.21,13.48-2.21,13.48a8.16,8.16,0,0,1-2.08-8.58,15.89,15.89,0,0,0-2.26,9.07C14.1,44,17,48.58,20,52.23a9,9,0,0,1,1.79,3.94,12.3,12.3,0,0,0-2.28-3.89" transform="translate(0 0)"/><path class="cls-2" d="M34.52,25.65c.13.14.26.3.39.45l.09.11.35.49.08.11c.13.2.26.42.39.64a5.89,5.89,0,0,0,4.69,3.22,5.9,5.9,0,0,0,4.69-3.22c.13-.22.26-.44.4-.64l.06-.09c.12-.17.24-.34.36-.51l.08-.1c.13-.16.26-.32.4-.46l.07-.06a4.84,4.84,0,0,1,2.23-1.33L48.37,24h0l-1.64-1-1.69-1-4.51,2.45h0L36,22.09l-1.69,1-1.65,1h0l-.42.24a4.83,4.83,0,0,1,2.23,1.33l.07.07m4.16-.2h3.81v1.31a1.61,1.61,0,0,0-1.32-.44v1.89a2.86,2.86,0,0,0,.36,1.33H39.64A2.81,2.81,0,0,0,40,28.21V26.32a1.61,1.61,0,0,0-1.32.44Z" transform="translate(0 0)"/><path class="cls-2" d="M40.11,22.91V15.25l-4.88-1.65L36.52,21Zm-1-5.78v1.23l-.24-.11a3,3,0,0,1-1-.57,2.22,2.22,0,0,1-1-1.49Z" transform="translate(0 0)"/><path class="cls-2" d="M44.48,21l1.28-7.42-4.87,1.65v7.66Zm-2.54-3.89,2.22-.93a2.22,2.22,0,0,1-1,1.49,3,3,0,0,1-1,.57l-.24.11Z" transform="translate(0 0)"/><path class="cls-2" d="M33.21,40.67a4.3,4.3,0,0,0,1.35.21l0-.14a2.71,2.71,0,0,0,.07-.27,7.7,7.7,0,0,0,.12-1.21,1.71,1.71,0,0,1-.64-.68.85.85,0,0,0-.82-.56,2.66,2.66,0,0,0-1.24.43,2.18,2.18,0,0,0,1.13,2.21" transform="translate(0 0)"/><path class="cls-2" d="M44,36.61c-.91,1-2.68,2.7-2.76,2.79l-.11.11-5.6-.09a5.76,5.76,0,0,1-.18,1.37l0,.18L42,42.16c.69-.48,2.6-1.88,3.34-2.42a3.25,3.25,0,0,1-.47-2.38,3.35,3.35,0,0,1-.84-.75" transform="translate(0 0)"/><path class="cls-2" d="M44.76,29.87a5.9,5.9,0,0,1-3.63,1.86,6,6,0,0,1-.61,0h0a6,6,0,0,1-.61,0,4.49,4.49,0,0,1-.6-.09,2.27,2.27,0,0,0,.1,1.46,2.32,2.32,0,0,0,1.4,1.16l.23.09v.25a2.33,2.33,0,0,0,1.83,2.16c.29-.3.55-.57.75-.8A1.84,1.84,0,0,1,44,33.81a3,3,0,0,0,1.46,3l.28.13-.08.3a2.36,2.36,0,0,0,1.48,2.93l.37.14-.16.36a2.32,2.32,0,0,0,1.07,3h4.16v-3.3a2.64,2.64,0,0,1-2.27-2.21,2.41,2.41,0,0,1-1.58-.9,2,2,0,0,1-.11-2.26,2.85,2.85,0,0,0,.69,1.82,2.15,2.15,0,0,0,1.36.65l.3,0,0,.31a2,2,0,0,0,1.58,1.82V32.94a8.84,8.84,0,0,1,.67-3.07Z" transform="translate(0 0)"/><polygon class="cls-2" points="33.57 32.96 33.45 37.26 33.94 37.33 35.14 33.21 34.53 31.94 33.57 32.96"/><path class="cls-2" d="M46.73,52.66h.12c.74.21.93,2.89,2.23,3.13a1.7,1.7,0,0,0,.35,0,1,1,0,0,0,.84-.45s-.66-1-1.15-1.73c-.65-.91-1.16-2-2.37-2h-.09a1.22,1.22,0,0,0-.65.22,2.51,2.51,0,0,0-1.36-.41,9.47,9.47,0,0,0-1.65.35h0l-2.71-.27a1.44,1.44,0,0,1-.88-.63l0-.07c0-.07,0-.15,0-.22a3.19,3.19,0,0,0-2.42-3.18s.07-.42-.09-.58l-.6.72-2-1,1.4,1.63-1.18,1.33a.37.37,0,0,0-.07.44l.51.45.65-.39a.3.3,0,0,1,.16,0c.18,0,.45,0,.69,0s.49-.06.52-.3c-.08.82-.84,2.25-.34,3.37L37,54l-2.39-.34-1.12,1.89a1.52,1.52,0,0,0-.07,1.68l.42.52a4,4,0,0,0,.72-1l-.19-.21a.4.4,0,0,1-.05-.52l.7-1.17,2.83.67.15-.25a.83.83,0,0,1,.77-.41,2.5,2.5,0,0,1,.39,0,12.19,12.19,0,0,0,2.25.24,3.22,3.22,0,0,0,2.39-.73c1,1.52,3.1,1.76,2.93,2.53l-.55,2.6c.36,0,.71,0,1-.09l.52-2.7c.06-.29.11-.69.11-.69a5,5,0,0,1-1-1.15c-.37-.7-.17-1.07-.51-2a.4.4,0,0,1,.34-.21m-10.58-3.8a.24.24,0,0,1-.23-.26.24.24,0,0,1,.26-.23.24.24,0,1,1,0,.49" transform="translate(0 0)"/><path class="cls-2" d="M32.29,55.12s.94-.39,1-.66l-.12-.31a.42.42,0,0,1,.1-.54l1-.7,1.69.32a1.43,1.43,0,0,1-.28-.89L34.1,52l-1.52.93a1.48,1.48,0,0,0-.48,1.76Z" transform="translate(0 0)"/><path class="cls-2" d="M44.24,59.53l1,0s.87-2.54.92-2.62a21.28,21.28,0,0,1-1.89-1c.26.39.89.83.76,1.17Z" transform="translate(0 0)"/><path class="cls-3" d="M52.52,44.45h-24v9c0,3.7,2.67,6,6.62,6,3.3,0,4.17.13,5.39,1.35a4,4,0,0,1,3-1.28l0-.14.76-2.34L43,55.63a4.64,4.64,0,0,1-1.6.19A13.07,13.07,0,0,1,39,55.57l-.25,0c-.11,0-.11,0-.14.06l-.15.25-.27.45-.52-.12-2.31-.54-.32.52,0,.06.28.31-.12.4a4.16,4.16,0,0,1-.89,1.31l-.58.62-.53-.66-.39-.49a2,2,0,0,1-.28-1.92h0l-.65.27-.29-.64L31.43,55a2.2,2.2,0,0,1,.73-2.65l1.86-1,1.77.35c0-.17.11-.78.16-.93h-.1l-1,.38-1-.68a.52.52,0,0,1,0-.74l.95-1.44-2.41-3L36,46.71l.25-.3.5-.6.57.54a1.08,1.08,0,0,1,.3.54c1,.4,2.85,1.57,3,3.47l-.57.23h0a.7.7,0,0,0,.27.23l2.64.26.24-.07a4.27,4.27,0,0,1,1.41-.27,3.23,3.23,0,0,1,1.38.32,2.08,2.08,0,0,1,.6-.12h.13c1.41,0,2.12,1.06,2.68,1.9l.29.42c.49.7,1.14,1.72,1.17,1.76l.29.45-.36.42a1.76,1.76,0,0,1-1.4.69,2.57,2.57,0,0,1-.48,0,2.08,2.08,0,0,1-.42-.13c0,.14,0,.31-.08.45L48,59.26a5.65,5.65,0,0,0,4.53-5.77Z" transform="translate(0 0)"/><path class="cls-3" d="M28.49,43.72H47.18a3,3,0,0,1-.68-3,3.11,3.11,0,0,1-.7-.46c-.73.54-3,2.16-3.54,2.57l-.12.08L34.8,41.61h-.15a6.12,6.12,0,0,1-.72,0,.71.71,0,0,1-.69.56h-.12a.73.73,0,0,1-.6-.83l0-.16a2.93,2.93,0,0,1-1.15-3l0-.13.11-.08s.14-.1.33-.21l-.53-.08a.37.37,0,0,1-.3-.42.36.36,0,0,1,.42-.3l1.27.2.12-4.47,1.89-2,1.18,2.48-1.24,4.3,1.12.18a.37.37,0,0,1,.3.42.36.36,0,0,1-.36.3h-.06l-.91-.15,0,.07a1,1,0,0,0,.44.41l5.59.09,1.43-1.41a3,3,0,0,1-2-2.49,2.93,2.93,0,0,1-1.59-1.46,3,3,0,0,1-.13-2,6.53,6.53,0,0,1-2.33-1.56H27.82a9,9,0,0,1,.67,3.07Z" transform="translate(0 0)"/><path class="cls-1" d="M36.18,48.37a.24.24,0,0,0-.26.23.24.24,0,0,0,.23.26.24.24,0,1,0,0-.49" transform="translate(0 0)"/><path class="cls-1" d="M52.49,64.77l-1.38-.53.38-1.43.42-1.56A32.69,32.69,0,0,1,46,63.58c-1,.28-1.72.41-1.72.41V65a24.87,24.87,0,0,1-3.72.32h-.11A24.82,24.82,0,0,1,36.73,65V64S36,63.86,35,63.58a32.63,32.63,0,0,1-5.91-2.33l.41,1.56.39,1.43-1.39.53L27,65.34A40.36,40.36,0,0,0,33.43,68l-.53,1.44a19.92,19.92,0,0,0,7.57,1.31h.06a19.9,19.9,0,0,0,7.57-1.31L47.58,68A40,40,0,0,0,54,65.34Zm-23.86.67,2.28-.76-.67-2.2a29.73,29.73,0,0,0,4.56,1.82l-1.1,3a27.57,27.57,0,0,1-5.06-1.89M40.51,70A25.26,25.26,0,0,1,34,69.11l1.35-3.66a21.9,21.9,0,0,0,5.15.66h.11a22,22,0,0,0,5.15-.66l1.35,3.66a25.23,25.23,0,0,1-6.55.93m6.82-2.71-1.1-3a29.69,29.69,0,0,0,4.56-1.82l-.67,2.2,2.27.76a27.44,27.44,0,0,1-5.06,1.89" transform="translate(0 0)"/><path class="cls-1" d="M40.5,7.69a10.39,10.39,0,0,1,6.32,1.93,12.55,12.55,0,0,1,1.63-4.19l-2.27.26L45,3.16,42.71,4.34,40.5,2.15,38.29,4.34,36,3.16,34.82,5.69l-2.27-.26a12.52,12.52,0,0,1,1.63,4.19A10.41,10.41,0,0,1,40.5,7.69M34.72,6.57l.63.07.27-.57.79-1.7,1.47.76.57.29L38.91,5,40.5,3.39,42.09,5l.46.45.57-.29,1.46-.76.8,1.7.27.57.63-.07.6-.07a14.21,14.21,0,0,0-.62,1.7,12.62,12.62,0,0,0-11.51,0,14.65,14.65,0,0,0-.62-1.7Z" transform="translate(0 0)"/><path class="cls-1" d="M73.56,37.24c3.64,0,4.86-3.71,4.91-3.87l.41-1.31-1.37,0h0a9.78,9.78,0,0,1-7.35-3.73L69.89,28c-1.86-2.37-3.63-4.62-6.79-5.65a3.18,3.18,0,0,1,.4-.3,5.94,5.94,0,0,0,2.9-4,5.92,5.92,0,0,0-1.2-4.28l-1-1.25-.63,1.49c0,.09-1.11,2.48-3.35,2.48H60l-.44,0A5.41,5.41,0,0,0,58,12.25a7.12,7.12,0,0,0-5.14-2.14,6.82,6.82,0,0,0-1.07.08l-1.53.3.95,1.25c.74,1,1.41,2.73.62,3.66a4.31,4.31,0,0,1-1.28.77c-1,.47-2.44,1.14-2.44,2.82,0,1.09.85,2.23,2.38,3.2C55,25.05,57.79,28,59,31.32c1.87,5.06-.57,7.94-2.94,9.46L55,41.46l.93.85a5.35,5.35,0,0,0,2.94,1.26c.32,0,.62,0,.91,0a9.35,9.35,0,0,0,2.74-.4,7,7,0,0,1-.78,1.1,6.7,6.7,0,0,1-5.42,2.32h-.89l-.07.89a4.21,4.21,0,0,0,1.49,3.24,3.47,3.47,0,0,0,.83.54,7.79,7.79,0,0,0-2.35,5.48,7.55,7.55,0,0,1-.75,3.27l-1,1.5,1.78,0q4.41,0,6.75-2.42a7.65,7.65,0,0,0,1.76-3,4.78,4.78,0,0,0,2,1,4.68,4.68,0,0,0,1.07.12,7,7,0,0,0,1.6-.19l1.14-.3-.5-1.06a7.55,7.55,0,0,1,0-5.25,17.29,17.29,0,0,0,.77-3.4,6.25,6.25,0,0,0,2.91.68,4.82,4.82,0,0,0,4.11-2.19l.55-1-1-.42c-3.35-1.39-4.09-5.13-4.24-7.15a6.25,6.25,0,0,0,1,.12Zm2.66,7.92A3.8,3.8,0,0,1,73,46.86h0a4.55,4.55,0,0,1-3.79-1.66,14.17,14.17,0,0,1-.82,5,8.5,8.5,0,0,0,0,6,5.83,5.83,0,0,1-1.36.17,3.37,3.37,0,0,1-.84-.1,3.93,3.93,0,0,1-2.82-2.59s.21,6.94-7.88,6.94h-.06a7.89,7.89,0,0,0,.92-3.76C56.7,51.73,60.18,51,60.18,51a6.19,6.19,0,0,1-2.67-1,3.29,3.29,0,0,1-1.17-2.46,7.65,7.65,0,0,0,6.13-2.65,7.81,7.81,0,0,0,1.79-3.7,7,7,0,0,1-4.49,1.39c-.26,0-.54,0-.82,0a4.34,4.34,0,0,1-2.37-1c3.08-2,5.24-5.42,3.33-10.61-1.54-4.16-5.23-7.27-8.94-9.61C49.74,20.6,49,19.74,49,19c0-1.74,2.47-1.79,3.49-3,1.17-1.36.44-3.56-.58-4.88a4.85,4.85,0,0,1,.88-.07,6.11,6.11,0,0,1,4.44,1.85,4.36,4.36,0,0,1,1.18,4.37l.54.11a6.3,6.3,0,0,0,1,.1h.22c2.93,0,4.25-3.07,4.25-3.07s3.12,3.84-1.47,6.84c-.79.51-1.14,1-1,1.5l.07.33.33.06c3.33.9,5,3.2,7.07,5.81a10.77,10.77,0,0,0,8.09,4.1h.06s-1,3.18-4,3.18h-.14a3.88,3.88,0,0,1-2.07-.57s-.53,7.23,4.86,9.47" transform="translate(0 0)"/><path class="cls-1" d="M67.15,22.8A9,9,0,0,1,70,25.35a5.36,5.36,0,0,0,2.34,2,3.48,3.48,0,0,0,1.13.18A4.09,4.09,0,0,0,77.1,25.3L77.68,24l-1.41-.08a6.74,6.74,0,0,1-3.9-2.23,4,4,0,0,0-2.91-1.29,4.58,4.58,0,0,0-2.41.73l-1.3.91Zm2.31-1.42a3,3,0,0,1,2.22,1,7.72,7.72,0,0,0,4.53,2.52,3.14,3.14,0,0,1-2.74,1.65,2.51,2.51,0,0,1-.83-.14c-1.62-.55-2.19-3-5-4.48a3.52,3.52,0,0,1,1.85-.56" transform="translate(0 0)"/><path class="cls-1" d="M67.79,35.67v0c-.82-6.6-5.61-11.37-10.94-14.26-.49-.27-.95-.49-1.39-.7a7.69,7.69,0,0,0,6.26-1.47s-3.09,2.27-9.41.21c1.75,1.14,5.15,2.74,8.26,5.34,7.76,6.82,2.21,13.48,2.21,13.48a8.17,8.17,0,0,0,2.09-8.58,16,16,0,0,1,2.26,9.07C66.91,44,64,48.58,61,52.23a9,9,0,0,0-1.78,3.94,12.18,12.18,0,0,1,2.28-3.89c3.25-3.81,6-7.76,6.39-13.45.34,1,1.72,3.91,3.92,5,0,0-2.76-1.66-4-8.14" transform="translate(0 0)"/><path class="cls-1" d="M26.41,60.08a7.78,7.78,0,0,1-.75-3.27,7.79,7.79,0,0,0-2.36-5.48,3.42,3.42,0,0,0,.83-.54,4.2,4.2,0,0,0,1.49-3.24l-.06-.89h-.9a6.7,6.7,0,0,1-5.41-2.32,7.32,7.32,0,0,1-.78-1.1,9.31,9.31,0,0,0,2.74.4c.29,0,.59,0,.91,0a5.36,5.36,0,0,0,2.95-1.26l.93-.85-1.06-.68c-2.38-1.52-4.81-4.4-2.94-9.46,1.21-3.29,4-6.26,8.55-9.12,1.53-1,2.37-2.11,2.37-3.2,0-1.68-1.41-2.35-2.44-2.82a4.27,4.27,0,0,1-1.28-.77c-.8-.93-.13-2.7.62-3.66l1-1.25-1.54-.3a6.73,6.73,0,0,0-1.07-.08A7.1,7.1,0,0,0,23,12.25a5.42,5.42,0,0,0-1.61,4.25l-.44,0h-.16c-2.25,0-3.31-2.38-3.35-2.48l-.63-1.49-1,1.25a6,6,0,0,0-1.19,4.28,5.92,5.92,0,0,0,2.89,4,3,3,0,0,1,.4.3c-3.16,1-4.93,3.28-6.79,5.65l-.27.34a9.78,9.78,0,0,1-7.36,3.73l-1.37,0,.42,1.31c0,.16,1.26,3.87,4.91,3.87h.18a6.39,6.39,0,0,0,1-.12c-.15,2-.89,5.76-4.25,7.15l-1,.42.55,1a4.82,4.82,0,0,0,4.11,2.19,6.26,6.26,0,0,0,2.9-.68,17.17,17.17,0,0,0,.77,3.4,7.55,7.55,0,0,1,0,5.25l-.5,1.06,1.14.3a7,7,0,0,0,1.6.19,4.64,4.64,0,0,0,1.07-.12,4.76,4.76,0,0,0,2-1,7.64,7.64,0,0,0,1.76,3q2.35,2.41,6.75,2.42l1.78,0Zm-.86.56c-8.09,0-7.89-6.94-7.89-6.94a3.93,3.93,0,0,1-2.82,2.59,3.32,3.32,0,0,1-.84.1,5.79,5.79,0,0,1-1.35-.17,8.53,8.53,0,0,0,0-6,14.2,14.2,0,0,1-.81-5,4.55,4.55,0,0,1-3.79,1.66H8a3.8,3.8,0,0,1-3.23-1.71c5.39-2.24,4.86-9.47,4.86-9.47a3.89,3.89,0,0,1-2.07.57H7.45c-3,0-4-3.18-4-3.18h.06A10.76,10.76,0,0,0,11.61,29c2.06-2.61,3.74-4.91,7.07-5.81l.33-.06.07-.33c.09-.51-.26-1-1-1.5-4.59-3-1.47-6.84-1.47-6.84s1.3,3.07,4.25,3.07H21a6.43,6.43,0,0,0,1-.1l.54-.11a4.35,4.35,0,0,1,1.18-4.37,6.11,6.11,0,0,1,4.44-1.85,4.81,4.81,0,0,1,.88.07c-1,1.33-1.74,3.53-.57,4.88,1,1.17,3.48,1.22,3.48,3,0,.74-.69,1.6-1.92,2.37-3.72,2.34-7.41,5.45-8.94,9.61-1.91,5.19.25,8.64,3.33,10.61a4.36,4.36,0,0,1-2.37,1c-.29,0-.56,0-.83,0a7,7,0,0,1-4.49-1.39,7.86,7.86,0,0,0,1.78,3.7,7.68,7.68,0,0,0,6.14,2.65,3.29,3.29,0,0,1-1.17,2.46,6.2,6.2,0,0,1-2.67,1s3.49.71,3.87,5.86a7.93,7.93,0,0,0,.92,3.76Z" transform="translate(0 0)"/><path class="cls-1" d="M7.53,27.52a3.49,3.49,0,0,0,1.13-.18,5.35,5.35,0,0,0,2.34-2,9,9,0,0,1,2.84-2.55l1.4-.75-1.3-.91a4.56,4.56,0,0,0-2.4-.73A4,4,0,0,0,8.63,21.7a6.75,6.75,0,0,1-3.89,2.23L3.33,24,3.9,25.3a4.09,4.09,0,0,0,3.62,2.22m1.79-5.14a3,3,0,0,1,2.22-1,3.53,3.53,0,0,1,1.84.56c-2.83,1.51-3.42,3.93-5,4.48a2.44,2.44,0,0,1-.82.14A3.13,3.13,0,0,1,4.79,24.9a7.71,7.71,0,0,0,4.53-2.52" transform="translate(0 0)"/><path class="cls-1" d="M13.89,38.8a15.89,15.89,0,0,1,2.26-9.07,8.16,8.16,0,0,0,2.09,8.58s-5.56-6.66,2.21-13.48c3.11-2.6,6.5-4.2,8.25-5.34-6.32,2.06-9.41-.21-9.41-.21a7.68,7.68,0,0,0,6.25,1.47c-.44.21-.9.44-1.39.7C18.82,24.35,14,29.12,13.21,35.72v-.05c-1.24,6.48-4,8.14-4,8.14,2.19-1.08,3.58-4,3.91-5,.37,5.7,3.15,9.65,6.4,13.45a12.29,12.29,0,0,1,2.28,3.89A9,9,0,0,0,20,52.23C17,48.58,14.1,44,13.89,38.8" transform="translate(0 0)"/><path class="cls-1" d="M38.67,25.45v1.31A1.61,1.61,0,0,1,40,26.32v1.89a2.81,2.81,0,0,1-.36,1.33h1.89a2.86,2.86,0,0,1-.36-1.33V26.32a1.61,1.61,0,0,1,1.32.44V25.45H38.67Z" transform="translate(0 0)"/><path class="cls-1" d="M37.86,17.69a3,3,0,0,0,1,.57l.24.11V17.13l-2.22-.93a2.22,2.22,0,0,0,1,1.49" transform="translate(0 0)"/><path class="cls-1" d="M43.14,17.69a2.22,2.22,0,0,0,1-1.49l-2.22.93v1.23l.23-.11a3,3,0,0,0,1-.57" transform="translate(0 0)"/><path class="cls-1" d="M47.13,12.67c0-1.87-3.15-3.55-6.62-3.55h0c-3.47,0-6.62,1.68-6.62,3.55l.07.46,1.39,8-1.39.81L30.33,24h0s-.81.42-1.19.67c-1.37,1-1.66,2.34-.87,2.92a2.72,2.72,0,0,1,2.77-2.32,3.61,3.61,0,0,1,2.87,1.56,7.41,7.41,0,0,1,.54.76c.21.34.42.64.63.93H25.82a10,10,0,0,1,1.33,4.4V53.49c0,5,3.83,7.35,8,7.35,3.2,0,3.63-.15,5.39,1.61,1.76-1.76,2.19-1.61,5.39-1.61,4.14,0,8-2.37,8-7.35V32.94a10,10,0,0,1,1.33-4.4H45.9c.21-.29.42-.59.63-.93a8.65,8.65,0,0,1,.54-.76,3.62,3.62,0,0,1,2.88-1.56,2.72,2.72,0,0,1,2.77,2.32c.8-.57.51-2-.87-2.92-.37-.26-1.18-.67-1.18-.67h0L47.07,21.9l-1.39-.81,1.39-8Zm-11.9.92,4.88,1.65v7.66L36.52,21Zm1,16.28a6.52,6.52,0,0,0,2.33,1.56,3,3,0,0,0,.13,2,2.93,2.93,0,0,0,1.59,1.46,3,3,0,0,0,2,2.49c-.6.61-1.19,1.18-1.43,1.41l-5.59-.09a1,1,0,0,1-.44-.41l0-.07.91.15h.06a.36.36,0,0,0,.36-.3.37.37,0,0,0-.3-.42l-1.12-.18,1.24-4.3-1.18-2.48-1.89,2-.12,4.47-1.27-.2a.36.36,0,0,0-.42.3.37.37,0,0,0,.3.42l.53.08c-.19.11-.32.19-.33.21l-.11.08,0,.13a2.94,2.94,0,0,0,1.15,3l0,.16a.73.73,0,0,0,.6.83h.12a.71.71,0,0,0,.69-.56,6.1,6.1,0,0,0,.71,0h.15l7.33,1.33.12-.08c.58-.41,2.81-2,3.54-2.57a3.12,3.12,0,0,0,.7.46,3,3,0,0,0,.68,3H28.49V32.94a9,9,0,0,0-.67-3.07Zm9.06,9.87c-.74.55-2.65,1.94-3.34,2.42L35.3,41l0-.18a5.8,5.8,0,0,0,.18-1.37l5.6.09.11-.11c.09-.09,1.86-1.8,2.76-2.79a3.38,3.38,0,0,0,.84.75,3.24,3.24,0,0,0,.47,2.38M34.15,38.59a1.71,1.71,0,0,0,.64.68,7.77,7.77,0,0,1-.12,1.21c0,.09,0,.18-.07.27l0,.14a4.3,4.3,0,0,1-1.35-.21,2.17,2.17,0,0,1-1.12-2.21A2.65,2.65,0,0,1,33.33,38a.84.84,0,0,1,.82.56m-.69-1.33L33.57,33l1-1,.61,1.27-1.19,4.12ZM45.25,59.51l-1,0L45,57.06c.12-.34-.5-.78-.76-1.17a20.92,20.92,0,0,0,1.89,1c0,.08-.92,2.62-.92,2.62m2.49-2.81-.52,2.7c-.33,0-.68.07-1,.09l.55-2.6c.16-.77-1.91-1-2.93-2.53a3.22,3.22,0,0,1-2.39.73,12.18,12.18,0,0,1-2.25-.24,2.42,2.42,0,0,0-.39,0,.82.82,0,0,0-.77.41l-.15.25L35,54.82,34.32,56a.41.41,0,0,0,.05.52l.19.21a4,4,0,0,1-.72,1l-.42-.52a1.52,1.52,0,0,1,.07-1.68l1.12-1.89L37,54l-.37-.85c-.5-1.12.26-2.55.34-3.37,0,.25-.26.3-.52.3s-.51,0-.69,0a.29.29,0,0,0-.16,0l-.65.39L34.44,50a.37.37,0,0,1,.07-.44l1.18-1.33-1.4-1.63,2,1,.6-.72c.16.16.09.58.09.58a3.19,3.19,0,0,1,2.42,3.18c0,.07,0,.14,0,.22l0,.07a1.43,1.43,0,0,0,.88.63l2.71.27h0a9.48,9.48,0,0,1,1.65-.35,2.51,2.51,0,0,1,1.36.41,1.21,1.21,0,0,1,.65-.22h.09c1.21,0,1.72,1.1,2.37,2,.49.69,1.15,1.73,1.15,1.73a1,1,0,0,1-.84.45,1.75,1.75,0,0,1-.35,0c-1.3-.24-1.49-2.92-2.23-3.13l-.12,0a.4.4,0,0,0-.34.21c.34.91.14,1.28.51,2a5,5,0,0,0,1,1.15s-.05.4-.11.69M33.19,54.15l.12.31c-.08.27-1,.66-1,.66l-.2-.44a1.48,1.48,0,0,1,.48-1.76L34.1,52l1.61.34a1.43,1.43,0,0,0,.28.89l-1.69-.32-1,.7a.43.43,0,0,0-.09.54M48,59.26l.46-2.42c0-.14.05-.31.07-.45a2.07,2.07,0,0,0,.42.13,2.58,2.58,0,0,0,.48,0,1.76,1.76,0,0,0,1.4-.69l.36-.42L50.89,55s-.67-1.06-1.17-1.76l-.28-.42c-.56-.84-1.27-1.9-2.68-1.9h-.13a2.05,2.05,0,0,0-.6.12,3.23,3.23,0,0,0-1.38-.32,4.29,4.29,0,0,0-1.41.27l-.24.07-2.64-.26a.71.71,0,0,1-.27-.23h0l.57-.23c-.16-1.91-2-3.08-3-3.47a1.08,1.08,0,0,0-.3-.54l-.57-.54-.5.6-.25.3-3.7-1.52,2.41,3-.95,1.44a.52.52,0,0,0,0,.74l1,.68,1-.38h.1c0,.15-.11.76-.16.93L34,51.28l-1.86,1A2.2,2.2,0,0,0,31.43,55l.21.45.29.64.65-.27h0a2,2,0,0,0,.28,1.92l.39.5.52.66.58-.62a4.12,4.12,0,0,0,.89-1.31l.12-.4-.28-.31,0-.06.32-.52,2.31.54.52.12.28-.46.15-.25c0-.05,0-.06.14-.06l.25,0a13,13,0,0,0,2.39.25,4.64,4.64,0,0,0,1.6-.19l1.28,1.46-.76,2.34,0,.14a4,4,0,0,0-3,1.28c-1.23-1.22-2.1-1.35-5.39-1.35-3.95,0-6.62-2.31-6.62-6v-9h24v9A5.65,5.65,0,0,1,48,59.26m5.2-29.39a8.82,8.82,0,0,0-.67,3.07v6.74a2,2,0,0,1-1.58-1.82l0-.31-.3,0a2.14,2.14,0,0,1-1.36-.65,2.85,2.85,0,0,1-.69-1.82,2,2,0,0,0,.11,2.26,2.41,2.41,0,0,0,1.58.9,2.64,2.64,0,0,0,2.27,2.21v3.3H48.36a2.32,2.32,0,0,1-1.07-3l.16-.36-.37-.14a2.36,2.36,0,0,1-1.48-2.93l.08-.3-.28-.13a3,3,0,0,1-1.46-3A1.84,1.84,0,0,0,43.6,36c-.2.23-.46.5-.75.8A2.33,2.33,0,0,1,41,34.6v-.25l-.23-.09a2.32,2.32,0,0,1-1.4-1.16,2.28,2.28,0,0,1-.1-1.46,4.3,4.3,0,0,0,.6.09,5.93,5.93,0,0,0,.61,0h0a5.72,5.72,0,0,0,4.24-1.9Zm-6.48-6.82,1.64,1h0l.41.24a4.84,4.84,0,0,0-2.23,1.33l-.07.06c-.14.15-.27.3-.4.46l-.08.1q-.19.24-.36.51l-.06.09c-.14.2-.27.42-.4.64a5.9,5.9,0,0,1-4.69,3.22,5.9,5.9,0,0,1-4.69-3.22c-.13-.22-.26-.43-.39-.64l-.08-.11L35,26.21l-.09-.11c-.13-.16-.26-.31-.39-.45l-.07-.07a4.84,4.84,0,0,0-2.23-1.33l.42-.24h0l1.65-1,1.69-1,4.51,2.45h0L45,22.09Zm-2.22-2-3.59,1.89V15.25l4.87-1.65Zm-4-6.61L35.16,12.3c.45-1.08,2.55-2,5.34-2s4.89.92,5.34,2Z" transform="translate(0 0)"/></svg>