<?xml version="1.0" encoding="UTF-8"?>
<svg width="183px" height="51px" viewBox="0 0 183 51" version="1.1" xmlns="http://www.w3.org/2000/svg" xmlns:xlink="http://www.w3.org/1999/xlink">
    <!-- Generator: Sketch 50.2 (55047) - http://www.bohemiancoding.com/sketch -->
    <title>VidIQ YouTube Certified</title>
    <desc>Created with Sketch.</desc>
    <defs/>
    <g id="Draft" stroke="none" stroke-width="1" fill="none" fill-rule="evenodd">
        <g id="VidIQ-Landing-Page" transform="translate(-150.000000, -25.000000)">
            <g id="Group-19" transform="translate(-30.000000, 0.000000)">
                <g id="Nav" transform="translate(180.000000, 25.000000)">
                    <g id="vidIQ-YouTube-Certfied-Copy">
                        <g id="vidIQ-YouTube-Certfied" transform="translate(0.335793, 0.000000)">
                            <g id="ytcertified-copy" transform="translate(133.309963, 12.080537)">
                                <g id="Group">
                                    <path d="M8.89144396,15.8864207 C8.08584871,15.7884912 7.34589693,15.3137737 6.98938637,14.6663149 C6.62582254,14.0060128 6.59264013,13.6604499 6.61404038,10.7537082 C6.63055143,8.50221151 6.63640244,8.36109664 6.72561023,8.03881209 C6.93792958,7.27030592 7.34918311,6.74614202 7.98774418,6.43019881 C8.8638721,5.9965796 9.80828845,6.05317004 10.6351237,6.58881257 C11.1614737,6.92988033 11.4814355,7.42305997 11.6520764,8.15648809 C11.7275785,8.48134128 11.734792,8.72985758 11.734792,11.004151 C11.734792,13.7686541 11.7214068,13.9285522 11.4388754,14.5276884 C11.1666835,15.10467 10.5508051,15.6134221 9.9083166,15.791702 C9.62554473,15.8701259 9.13389999,15.9159601 8.89144396,15.8864207 L8.89144396,15.8864207 L8.89144396,15.8864207 Z M9.59741181,14.0808246 C9.90607237,13.844991 9.90815629,13.8255656 9.92530856,11.1619621 C9.93853343,9.09332071 9.93123971,8.74181783 9.86856182,8.459267 C9.78400277,8.07910769 9.63580403,7.89737613 9.34621934,7.81943384 C8.97127411,7.71829348 8.62798842,7.93317661 8.5090447,8.3431964 C8.41743239,8.65921988 8.41847434,13.3519719 8.51024696,13.6682361 C8.57877586,13.9051133 8.80207586,14.1649477 8.96750702,14.2002665 C9.1822309,14.2462613 9.44640779,14.196253 9.59741181,14.0808246 L9.59741181,14.0808246 L9.59741181,14.0808246 Z M14.1340247,15.8885078 C13.6872644,15.8290276 13.4266142,15.656206 13.2477177,15.3015726 C13.0231353,14.8564748 13.0232154,14.8589632 13.0232154,10.4253231 L13.0232154,6.28747853 L13.9241099,6.28747853 L14.8250044,6.28747853 L14.8441604,10.1013529 C14.8648393,14.2446559 14.8585876,14.1479304 15.1063336,14.21022 C15.3336411,14.2674526 15.585074,14.1453618 15.8988642,13.8254853 L16.1993494,13.519014 L16.2107308,9.90348706 L16.2221122,6.28763907 L17.1218045,6.27567882 L18.0214967,6.2636383 L18.0214967,10.9994953 L18.0214967,15.7357537 L17.899347,15.760798 C17.7520299,15.7909796 16.3876236,15.7891334 16.2777369,15.7582294 C16.2106507,15.7397672 16.1999906,15.6782803 16.1999906,15.3071915 L16.1999906,14.8778266 L15.9445502,15.1269851 C15.3566444,15.7001138 14.722171,15.9670119 14.1340247,15.8885078 L14.1340247,15.8885078 L14.1340247,15.8885078 Z M2.44379655,15.7335864 C2.40596539,15.6725009 2.4118164,12.0119424 2.45036891,11.4932369 C2.49998223,10.82852 2.38849253,10.3058009 1.91175583,8.96898228 C1.75706487,8.53504199 1.47806009,7.69397164 1.29162943,7.10037407 C-0.0551437201,2.81001622 0.016430905,3.06198414 0.144992717,3.06094063 C1.03210128,3.0532347 2.12784227,3.0586128 2.13986488,3.07057305 C2.14828071,3.07892114 2.43682343,4.12652652 2.78075033,5.39864745 C3.12467722,6.67044729 3.41177723,7.72937076 3.41875034,7.75152532 C3.42556316,7.77351933 3.62746291,7.0328669 3.86751442,6.10494427 C4.37021997,4.16048079 4.65243078,3.08702842 4.66317098,3.0771552 C4.68577349,3.0564455 4.93584385,3.05178984 5.75298081,3.05628496 L6.65756224,3.06158279 L6.6376047,3.20614929 C6.6213341,3.32446745 6.00417328,5.40025285 5.35783758,7.51079521 C5.28666371,7.74333776 5.10664511,8.34407937 4.95796546,8.84576764 C4.80912551,9.34737565 4.62870615,9.94338132 4.55689108,10.1699036 L4.42640565,10.5819302 L4.42640565,13.1590827 C4.42640565,15.5756951 4.4215966,15.7374394 4.34865941,15.7574267 C4.18643428,15.8022174 2.47273097,15.7805444 2.44379655,15.7335864 L2.44379655,15.7335864 Z" id="Shape" fill="#242424"/>
                                    <g transform="translate(19.636935, 0.000000)" fill="#E33200" id="Shape">
                                        <g>
                                            <path d="M29.3424704,5.86638146 C29.1688638,3.78409418 29.0309244,3.10813946 28.6021178,2.24009835 C28.0343299,1.09046963 27.2135862,0.483948576 26.0447477,0.351021251 C25.1408876,0.248195223 21.7404116,0.102826029 18.5935327,0.0328304806 C13.1455255,-0.0885379466 4.1886785,0.144967844 3.04476692,0.437953795 C2.51625283,0.573289224 2.11966689,0.803584209 1.7072111,1.21464751 C0.984090981,1.93539296 0.55344097,2.96879053 0.380315337,4.39832116 C-0.0149080406,7.66218467 -0.02332387,11.6055348 0.357632673,14.9877164 C0.521540969,16.4425322 0.859135953,17.3876326 1.49272768,18.1666541 C1.88795106,18.6526095 2.56923248,19.0658401 3.17869883,19.1892153 C3.60622296,19.2756662 5.7464886,19.3957503 8.86395225,19.5080482 C9.32802512,19.5247444 10.5577782,19.5536416 11.5962915,19.5720235 C13.7606825,19.6105531 17.7402477,19.5877564 20.0152468,19.5238614 C21.5458858,19.4809169 24.3362542,19.3675755 24.8578753,19.3271996 C25.0043909,19.3158815 25.3443102,19.2939678 25.613216,19.278877 C26.5164349,19.2275844 27.0908753,19.0383074 27.6302899,18.6139193 C28.3285633,18.0643097 28.8691802,17.0489729 29.0979304,15.8580051 C29.314097,14.7315745 29.4587691,12.7249016 29.4880242,10.4468355 C29.5125503,8.54322955 29.4797686,7.51625358 29.3424704,5.86638146 L29.3424704,5.86638146 Z M7.64846603,4.89575512 L6.63640244,4.90835753 L6.61420068,10.3142293 L6.59215922,15.7203419 L5.71458859,15.7316599 C5.03587199,15.7409713 4.8299647,15.7308572 4.81361395,15.6870298 C4.80191194,15.6558849 4.78772525,13.2187234 4.78171395,10.2699202 L4.77057299,4.90835753 L3.78215387,4.89575512 L2.7936546,4.88331325 L2.7936546,4.03919263 L2.7936546,3.19354688 L5.71450844,3.20486496 L8.63552259,3.2173871 L8.64810626,4.05010937 L8.66052963,4.88323298 L7.64846603,4.89575512 L7.64846603,4.89575512 Z M13.8562222,11.09301 L13.8562222,15.7425767 L13.056478,15.7425767 L12.2566536,15.7425767 L12.2566536,15.2531697 C12.2566536,14.8848904 12.2426272,14.7636825 12.1997466,14.7636825 C12.1682473,14.7636825 12.0233347,14.8850509 11.8776207,15.0334704 C11.5613458,15.3552733 11.1864807,15.614305 10.8668395,15.7341483 C10.2046339,15.9824238 9.57577111,15.8376165 9.30782713,15.3755817 C9.06256582,14.9523976 9.05775677,14.8579999 9.05775677,10.4713982 L9.05775677,6.44320257 L9.05783692,6.44320257 L9.05783692,6.44328284 L9.85766132,6.44328284 L10.6558827,6.44328284 L10.6685465,10.2363673 C10.6801684,13.963871 10.682092,14.0319401 10.7711395,14.1839717 C10.8893618,14.3852089 11.0693003,14.4391504 11.3555186,14.3604054 C11.5241558,14.3141698 11.6390119,14.232214 11.9122458,13.960018 L12.2565734,13.6166225 L12.2565734,10.0305547 L12.2565734,6.44304203 L13.0563978,6.44304203 L13.8561421,6.44304203 L13.8561421,11.09301 L13.8562222,11.09301 Z M20.0941151,15.0778598 C19.9533704,15.3920371 19.6393397,15.6997124 19.3819756,15.7757282 C18.7099116,15.9744771 18.1712183,15.8126525 17.5492485,15.2265201 C17.3564057,15.0447082 17.1766276,14.8970915 17.1494565,14.8970915 C17.1168351,14.8970915 17.0995226,15.0395709 17.0995226,15.3198742 L17.0995226,15.7424964 L16.2997783,15.7424964 L15.4999539,15.7424964 L15.4999539,9.46882434 L15.4999539,3.19507201 L16.299618,3.19507201 L17.0993623,3.19507201 L17.0993623,5.24163908 C17.0993623,6.3673473 17.1144306,7.28828643 17.1328653,7.28828643 C17.1513,7.28828643 17.3199371,7.13914454 17.5076502,6.95757352 C17.9401437,6.53976753 18.301303,6.35691218 18.7599256,6.32215522 C19.5779442,6.26026696 20.0651807,6.68176538 20.2885608,7.64452524 C20.3582118,7.94481577 20.3648644,8.28789028 20.3648644,11.0706147 C20.3648644,14.4603417 20.3646239,14.4744693 20.0941151,15.0778598 L20.0941151,15.0778598 Z M26.8612434,13.2176799 C26.8470567,13.5664536 26.8049776,13.9666002 26.7668258,14.1074743 C26.5444876,14.9333736 25.9523339,15.5182217 25.0965642,15.7579885 C23.9443971,16.080835 22.6760916,15.5518549 22.1696991,14.53708 C21.8856448,13.9676437 21.875626,13.8540615 21.875626,11.0707752 C21.875626,8.80137827 21.8837212,8.52292121 21.9562576,8.21339961 C22.1612833,7.33749202 22.670481,6.77046386 23.5318612,6.45596552 C23.7815308,6.36461812 24.042181,6.3179009 24.3022702,6.31260308 C25.2322595,6.29349879 26.1550351,6.79446463 26.5420831,7.60976828 C26.8028135,8.15993971 26.8351143,8.39537198 26.8612434,9.94570915 L26.8849681,11.3361482 L25.1800813,11.3473058 L23.4751946,11.3599082 L23.4625308,12.2942524 C23.4447373,13.6126089 23.5337848,14.0180533 23.8889328,14.2574991 C24.1876547,14.4592179 24.6467582,14.4439666 24.8966683,14.224187 C25.1311092,14.0184547 25.1970733,13.7969894 25.2199964,13.1507347 L25.2409959,12.5834657 L26.0642243,12.5834657 L26.8875329,12.5834657 L26.8612434,13.2176799 L26.8612434,13.2176799 Z"/>
                                            <path d="M18.547446,8.20625557 C18.4314678,7.97226816 18.2153012,7.85675945 17.9644294,7.8657497 C17.7691821,7.87265293 17.5524545,7.95517062 17.3436618,8.11458709 L17.1883296,8.23282498 L17.1883296,11.0706949 L17.1883296,13.90712 L17.3436618,14.0254382 C17.695764,14.2943431 18.0826517,14.3511744 18.3488324,14.1728141 C18.4543909,14.1021764 18.5230801,14.004889 18.5766208,13.850048 C18.6461917,13.6487305 18.6522832,13.3911437 18.6430658,11.0039905 C18.6338485,8.51577716 18.6283982,8.369525 18.547446,8.20625557 L18.547446,8.20625557 Z"/>
                                            <path d="M24.3661504,10.0028615 L25.2366678,10.0028615 L25.2230421,9.21292319 C25.2093364,8.48856559 25.1986763,8.40580709 25.1019343,8.20922556 C24.9494876,7.8990618 24.7245846,7.76147881 24.367513,7.76147881 C23.9388667,7.76147881 23.6669152,7.96881654 23.5385938,8.39545225 C23.4840913,8.576943 23.4267034,9.82418018 23.467981,9.93190269 C23.4909843,9.99202501 23.6155386,10.0028615 24.3661504,10.0028615 L24.3661504,10.0028615 Z"/>
                                        </g>
                                    </g>
                                </g>
                                <g id="Group" transform="translate(0.961809, 21.592663)" fill="#242424">
                                    <path d="M2.82347068,0.666402568 C2.18010056,0.666402568 1.67234552,0.880884339 1.29988496,1.31016896 C0.927504547,1.73921277 0.741314341,2.32670981 0.741314341,3.07241926 C0.741314341,3.83972137 0.920852035,4.43267678 1.27992742,4.85088412 C1.63892266,5.26933228 2.15076538,5.47843595 2.81537545,5.47843595 C3.2238237,5.47843595 3.6894996,5.40498879 4.21288403,5.25793392 L4.21288403,5.85538445 C3.80716091,6.00757661 3.30653928,6.08399376 2.71141992,6.08399376 C1.84923824,6.08399376 1.18382666,5.82207235 0.715345496,5.29798871 C0.246864328,4.77414588 0.0125836687,4.02939967 0.0125836687,3.06439225 C0.0125836687,2.46027929 0.125355782,1.93081756 0.35098016,1.47648866 C0.576524387,1.02191895 0.902176908,0.671860936 1.32793772,0.425833007 C1.75369854,0.179965618 2.25472091,0.0568312477 2.83132545,0.0568312477 C3.44520009,0.0568312477 3.9818094,0.169129151 4.44099308,0.393644687 L4.15269081,0.97929551 C3.70961744,0.770914269 3.26654406,0.666402568 2.82347068,0.666402568 L2.82347068,0.666402568 Z" id="Shape"/>
                                    <polygon id="Shape" points="9.90150378 6.00388418 6.6380856 6.00388418 6.6380856 0.141275418 9.90150378 0.141275418 9.90150378 0.746752962 7.31888612 0.746752962 7.31888612 2.6354287 9.74520981 2.6354287 9.74520981 3.23697301 7.31888612 3.23697301 7.31888612 5.39423259 9.90150378 5.39423259"/>
                                    <path d="M13.0275436,3.56575944 L13.0275436,6.00388418 L12.3468232,6.00388418 L12.3468232,0.141275418 L13.9524833,0.141275418 C14.6703936,0.141275418 15.2010718,0.27901895 15.5440368,0.554345475 C15.8869218,0.82983254 16.0585245,1.24410665 16.0585245,1.79756915 C16.0585245,2.57281801 15.6661064,3.09682138 14.8812702,3.36941872 L16.4709002,6.00404472 L15.6661064,6.00404472 L14.2487205,3.56591998 L13.0274634,3.56591998 L13.0274634,3.56575944 L13.0275436,3.56575944 Z M13.0275436,2.98026916 L13.9605785,2.98026916 C14.4410823,2.98026916 14.7935052,2.88474771 15.0176067,2.693464 C15.2417883,2.50234084 15.3539193,2.2157765 15.3539193,1.83328936 C15.3539193,1.44582547 15.2398647,1.16624463 15.0115954,0.995269265 C14.783326,0.824213631 14.4169569,0.738645679 13.9124881,0.738645679 L13.0275436,0.738645679 L13.0275436,2.98026916 L13.0275436,2.98026916 Z" id="Shape"/>
                                    <polygon id="Shape" points="20.3659063 6.00388418 19.685186 6.00388418 19.685186 0.746752962 17.8312188 0.746752962 17.8312188 0.141275418 22.2197132 0.141275418 22.2197132 0.746752962 20.365746 0.746752962 20.365746 6.00388418"/>
                                    <polygon id="Shape" points="24.2486494 6.00388418 24.2486494 0.141275418 24.9294499 0.141275418 24.9294499 6.00388418"/>
                                    <polygon id="Shape" points="28.3637495 6.00388418 27.6830291 6.00388418 27.6830291 0.141275418 30.9463672 0.141275418 30.9463672 0.746752962 28.3637495 0.746752962 28.3637495 2.89213256 30.7901533 2.89213256 30.7901533 3.49769037 28.3637495 3.49769037"/>
                                    <polygon id="Shape" points="33.0634692 6.00388418 33.0634692 0.141275418 33.7441896 0.141275418 33.7441896 6.00388418"/>
                                    <polygon id="Shape" points="39.761187 6.00388418 36.497849 6.00388418 36.497849 0.141275418 39.761187 0.141275418 39.761187 0.746752962 37.178409 0.746752962 37.178409 2.6354287 39.6048129 2.6354287 39.6048129 3.23697301 37.178409 3.23697301 37.178409 5.39423259 39.761187 5.39423259 39.761187 6.00388418"/>
                                    <path d="M46.8792153,3.01639071 C46.8792153,3.98412733 46.616962,4.72389679 46.0925357,5.23577937 C45.567949,5.74790276 44.8131693,6.00364337 43.8281966,6.00364337 L42.2065866,6.00364337 L42.2065866,0.141034608 L44.0004406,0.141034608 C44.9107128,0.141034608 45.6181233,0.393564417 46.1225922,0.899025387 C46.6269809,1.40424555 46.8792153,2.10998047 46.8792153,3.01639071 L46.8792153,3.01639071 Z M46.1584997,3.04039148 C46.1584997,2.27589882 45.9668593,1.69988041 45.5838188,1.31209544 C45.2008585,0.924631556 44.6315477,0.730538397 43.8761268,0.730538397 L42.8871466,0.730538397 L42.8871466,5.41430012 L43.7159054,5.41430012 C44.5274318,5.41430012 45.1374592,5.21450778 45.5458273,4.81484284 C45.9541954,4.41517789 46.1584997,3.82374762 46.1584997,3.04039148 L46.1584997,3.04039148 Z" id="Shape"/>
                                </g>
                            </g>
                            <g id="vidIQ-Copy">
                                <path d="M0.144545899,16.1828421 C-0.274400041,15.3797264 0.263789264,14.5133108 1.16130283,14.5133108 L7.85710472,14.5133108 C8.27636949,14.5133108 8.75398062,14.8235456 8.93348333,15.1951021 L12.4613652,23.6014427 L12.640868,23.6014427 L16.4069178,15.1951021 C16.766242,14.4519892 17.1842315,14.5133108 18.0211668,14.5133108 L24.0601737,14.5133108 C24.9576873,14.5133108 25.4958766,15.3797264 25.0766118,16.1828421 L13.7172466,39.2440673 C13.537425,39.5519943 13.0588574,39.8615697 12.7004896,39.8615697 L12.4017436,39.8615697 C12.0421005,39.8615697 11.5644893,39.5519943 11.3849866,39.2440673 L0.144545899,16.1828421 Z M28.6034735,15.6876863 C28.6034735,15.0082029 29.1413439,14.5130141 29.7394738,14.5130141 L36.3160323,14.5130141 C36.9135244,14.5130141 37.4520326,15.0082029 37.4520326,15.6876863 L37.4520326,38.0697578 C37.4520326,38.6872602 36.9135244,39.2441003 36.3160323,39.2441003 L29.7394738,39.2441003 C29.1413439,39.2441003 28.6034735,38.6872602 28.6034735,38.0697578 L28.6034735,15.6876863 Z M55.2085493,31.8867225 C52.4582999,31.8867225 50.3654832,29.6606808 50.3654832,26.8171367 C50.3654832,24.0349142 52.4582999,21.8725019 55.2085493,21.8725019 C57.9587987,21.8725019 59.9923125,24.0349142 59.9923125,26.8171367 C59.9923125,29.6606808 57.9587987,31.8867225 55.2085493,31.8867225 Z M54.072549,13.8950831 C56.1054252,13.8950831 58.3184418,14.6368773 59.0351773,15.0694257 L59.0351773,1.65350209 C59.0351773,1.03336221 59.5730478,0.478829898 60.1708588,0.478829898 L66.8083143,0.478829898 C67.4058065,0.478829898 67.9443146,1.03336221 67.9443146,1.65350209 L67.9443146,38.0696589 C67.9443146,38.6871613 67.4058065,39.2440014 66.8083143,39.2440014 L63.9974867,39.2440014 C63.3996758,39.2440014 62.9820052,38.6871613 62.7425619,38.0076779 L62.0248699,35.9665901 C62.0248699,35.9665901 59.2743017,39.8615038 54.0132462,39.8615038 C47.2568661,39.8615038 42.174038,33.9871538 42.174038,26.8784583 C42.174038,18.1602345 47.6754932,13.8950831 54.072549,13.8950831" id="vid" fill="#000000"/>
                                <path d="M37.1440934,4.48574442 C37.2180625,4.52431771 37.2811914,4.60014555 37.2811914,4.70531547 L37.2811914,4.83455249 C37.2811914,4.93708493 37.2180625,5.01522057 37.1440934,5.05577198 L28.7163932,9.09508822 C28.5534698,9.17355355 28.3905464,9.06838363 28.3905464,8.87584684 L28.3905464,0.639624341 C28.3905464,0.44412038 28.5534698,0.341917635 28.7163932,0.417745478 L37.1440934,4.48574442 Z M97.1292769,19.9465471 C97.1292769,14.1585749 101.708668,9.36988173 107.256036,9.36988173 C112.853459,9.36988173 117.433808,14.1585749 117.433808,19.9465471 C117.433808,25.6824289 112.853459,30.4187019 107.256036,30.4187019 C101.708668,30.4187019 97.1292769,25.6824289 97.1292769,19.9465471 Z M116.644378,37.426843 L123.567508,48.6348576 C123.995381,49.4119282 123.567508,50.300103 122.708254,50.300103 L114.986449,50.300103 C114.5573,50.300103 114.288843,50.0225071 114.127195,49.7439222 L108.428064,39.8454215 C107.96225,39.8681699 107.534376,39.8681699 107.254441,39.8681699 C96.5225386,39.8681699 87.9915367,31.0467543 87.9915367,19.9495143 C87.9915367,8.85260396 96.5225386,-0.081234698 107.254441,-0.081234698 C117.986344,-0.081234698 126.572185,8.85260396 126.572185,19.9495143 C126.572185,27.1623906 122.5482,33.7096303 116.644378,37.426843 Z M73.9426277,1.56719667 C73.9426277,0.947056791 74.480817,0.392524478 75.078628,0.392524478 L82.2529975,0.392524478 C82.8508085,0.392524478 83.3889978,0.947056791 83.3889978,1.56719667 L83.3889978,37.9833535 C83.3889978,38.6008559 82.8508085,39.1583554 82.2529975,39.1583554 L75.078628,39.1583554 C74.480817,39.1583554 73.9426277,38.6008559 73.9426277,37.9833535 L73.9426277,1.56719667 Z" id="IQ" fill="#549DD2"/>
                            </g>
                        </g>
                    </g>
                </g>
            </g>
        </g>
    </g>
</svg>