<svg fill="none" height="2500" width="2500" xmlns="http://www.w3.org/2000/svg" viewBox="0 0 359 359"><path d="M178.79 99.032c-44.703 0-80.452 36.441-80.452 80.457 0 44.706 36.438 80.457 80.452 80.457 14.442 0 28.195-4.132 40.57-10.999v-46.75h22.685v58.46l-4.821 3.443c-17.197 12.377-37.127 18.576-58.456 18.576-57.078 0-103.159-46.083-103.159-103.165S121.69 76.346 178.768 76.346h180.189V53.638H178.79c-69.454 0-125.844 56.393-125.844 125.851s56.39 125.852 125.844 125.852c32.327 0 62.588-11.688 85.273-33.707v-96.256H178.79V152.67h107.958v127.918l-3.444 3.444c-28.194 28.196-65.321 43.328-104.536 43.328-81.83 0-147.861-66.015-147.861-147.871 0-81.856 66.01-148.537 147.861-148.537h180.189V0H0v359h358.978V99.032z" fill="#eb0045"/><g fill="#fff"><path d="M178.79 30.952c-81.83 0-147.862 66.703-147.862 148.537 0 81.835 66.01 147.871 147.862 147.871 39.193 0 76.341-15.132 104.536-43.328l3.444-3.444V152.67H178.79v22.687h85.273v96.277c-22.685 21.997-52.946 33.707-85.273 33.707-69.454 0-125.844-56.394-125.844-125.852S109.336 53.638 178.79 53.638h180.188V30.952z"/><path d="M75.631 179.489c0 57.082 46.08 103.165 103.159 103.165 21.307 0 41.259-6.199 58.456-18.575l4.821-3.444v-58.438h-22.685v46.772c-12.376 6.888-26.129 10.999-40.571 10.999-44.014 0-80.452-35.752-80.452-80.457 0-44.017 35.75-80.457 80.452-80.457H359V76.346H178.79c-57.079 0-103.159 46.061-103.159 103.143z"/></g></svg>