<?xml version="1.0" encoding="UTF-8"?>
<svg width="321px" height="70px" viewBox="0 0 321 70" version="1.1" xmlns="http://www.w3.org/2000/svg" xmlns:xlink="http://www.w3.org/1999/xlink">
    <!-- Generator: Sketch 51.2 (57519) - http://www.bohemiancoding.com/sketch -->
    <title>Artboard</title>
    <desc>Created with Sketch.</desc>
    <defs>
        <polygon id="path-1" points="0 69.541 320.626 69.541 320.626 0 0 0"></polygon>
        <polygon id="path-3" points="0 69.541 320.626 69.541 320.626 0 0 0"></polygon>
        <polygon id="path-5" points="0 69.541 320.626 69.541 320.626 0 0 0"></polygon>
    </defs>
    <g id="Artboard" stroke="none" stroke-width="1" fill="none" fill-rule="evenodd">
        <g id="Group" transform="translate(0.000000, -1.000000)">
            <g id="logo-raif">
                <g id="Group-3" transform="translate(79.000000, 0.541000)"></g>
                <g id="Fill-4-Clipped" transform="translate(0.000000, 1.000000)">
                    <mask id="mask-2" fill="white">
                        <use xlink:href="#path-1"></use>
                    </mask>
                    <g id="path-1"></g>
                    <polygon id="Fill-4" fill="#FFED00" fill-rule="nonzero" mask="url(#mask-2)" points="2.318 67.223 67.222 67.223 67.222 2.32 2.318 2.32"></polygon>
                </g>
                <g id="Fill-6-Clipped" transform="translate(0.000000, 1.000000)">
                    <mask id="mask-4" fill="white">
                        <use xlink:href="#path-3"></use>
                    </mask>
                    <g id="path-1"></g>
                    <path d="M2.318,67.223 L67.222,67.223 L67.222,2.32 L2.318,2.32 L2.318,67.223 Z M0,69.541 L69.542,69.541 L69.542,-0.001 L0,-0.001 L0,69.541 Z" id="Fill-6" fill="#000000" fill-rule="nonzero" mask="url(#mask-4)"></path>
                </g>
                <g id="Fill-7-Clipped" transform="translate(0.000000, 1.000000)">
                    <mask id="mask-6" fill="white">
                        <use xlink:href="#path-5"></use>
                    </mask>
                    <g id="path-1"></g>
                    <path d="M34.7706,42.6977 L14.7966,62.6687 L6.8716,54.7537 L26.8476,34.7757 L22.6806,30.6057 L22.6806,22.3727 L19.7866,19.4757 L19.7866,26.6557 L17.2676,29.1757 L7.1406,19.0457 L4.6356,21.5497 C4.6536,19.6607 5.0306,14.1937 9.6676,9.6357 C14.6716,4.8217 20.0756,6.9907 21.9236,8.8407 L32.0456,18.9657 L29.4636,21.5447 L34.7706,26.8537 L40.0766,21.5447 L37.4956,18.9657 L47.6156,8.8407 C49.4636,6.9907 54.8676,4.8217 59.8716,9.6357 C64.5096,14.1937 64.8866,19.6607 64.9056,21.5497 L62.4006,19.0457 L52.2726,29.1757 L49.7546,26.6557 L49.7546,19.4757 L46.8586,22.3727 L46.8586,30.6057 L42.6916,34.7757 L62.6686,54.7537 L54.7446,62.6687 L34.7706,42.6977 Z" id="Fill-7" fill="#000000" fill-rule="nonzero" mask="url(#mask-6)"></path>
                </g>
                <g id="Group-4" transform="translate(0.000000, 1.000000)">
                    <g id="Group-2">
                        <polygon id="Path" fill="#FFED00" points="3 3 3 66.28125 66.4375 66.28125 66.4375 3"></polygon>
                        <path d="M3,3 L3,66.28125 L66.4375,66.28125 L66.4375,3 L3,3 Z M0.74208,0.74208 L68.69542,0.74208 L68.69542,68.53917 L0.74208,68.53917 L0.74208,0.74208 Z" id="Rectangle" fill="#000000" fill-rule="nonzero"></path>
                        <path d="M34.659878,42.2080402 L54.7467212,62.055975 L62.6126179,54.2780674 L42.509483,34.3743718 L46.4261398,30.5224696 L46.4261398,22.7797794 L49.2201549,20.0188826 L49.2283007,26.43285 L51.9623329,29.0946979 L61.7624908,19.3739642 L64.4128434,21.9639098 C64.4128434,20.2969533 63.9240944,14.5425783 59.2506172,10.0310837 C54.0247056,4.98765981 48.8039777,7.93051307 46.9948659,9.72293155 L37.5257243,19.1032305 L39.883568,21.4393174 L34.659878,26.5876598 L29.450258,21.4393174 L31.8118043,19.1032305 L22.3337764,9.72293155 C20.5357725,7.93051307 15.3083798,4.98765981 10.0691387,10.0310837 C5.42083954,14.5425783 5.02465664,20.3020892 5.02465664,21.9734479 L7.5705946,19.3739642 L17.3744551,29.0946979 L20.1084874,26.4057033 L20.1084874,20.0188826 L22.9091673,22.7797794 L22.9002809,30.4989913 L26.825824,34.3773066 L6.91818874,54.0763011 L14.7751991,61.8490729 L34.659878,42.2080402" id="Fill-22" fill="#000000"></path>
                    </g>
                </g>
            </g>
            <rect id="Rectangle-2" fill-rule="nonzero" x="0" y="1" width="321" height="69"></rect>
            <path d="M185.553778,44 L174.425351,55.1403712 L174.345554,55.1403712 L176.264992,44 L168.645471,44 L164,71 L171.621678,71 L173.631696,59.2916473 L173.709336,59.2916473 L181.531585,71 L191.406985,71 L181.141227,56.7837587 L195,44 L185.553778,44 Z M136.377871,44 L132,71 L139.187891,71 L141.872651,54.4575406 L141.947808,54.4575406 L152.427975,71 L159.615866,71 L164,44 L156.807933,44 L154.133612,60.5069606 L154.056367,60.5069606 L143.565762,44 L136.377871,44 Z M122.268356,66.3058005 L123.305456,71 L131,71 L124.940725,44 L117.068567,44 L102,71 L109.653713,71 L112.332207,66.3058005 L122.268356,66.3058005 Z M122,61 L116,61 L120.382022,52 L120.455567,52 L122,61 Z M90.9894675,48 L91.5845649,48 C93.8421566,48 96.4138276,48.1654015 95.9438895,51.0011986 C95.514097,53.6332401 93.1549608,54 90.9422376,54 L90,54 L90.9894675,48 Z M91.8374884,71 C97.2484146,71 102.861598,69.137355 103.844612,63.4805104 C104.49488,59.7218097 103.146498,57.1074246 98.9991363,56.6083527 L99.0100104,56.5331787 C101.595859,55.4243619 102.800703,53.4531323 103.222616,51.0183295 C104.116463,45.8605568 100.910794,44 95.656454,44 L84.682365,44 L80,71 L91.8374884,71 Z M90.0555375,59.0091559 L90.874489,59.0091559 C93.5019583,59.0091559 97.5330195,58.674921 96.9415545,62.045302 C96.4046863,65.1094808 92.4054733,64.9995067 90.0282391,64.9995067 L89,64.9995067 L90.0555375,59.0091559 Z M243.392912,15.975022 L243.392912,13.6083847 L237,13.6083847 L237,32 L243.392912,32 L243.392912,22.4707306 C243.392912,20.1709947 244.130715,18.1994938 246.726537,18.1994938 C249.891818,18.1994938 249.609166,21.2832306 249.609166,23.0373019 L249.609166,32 L256,32 L256,20.6351232 C256,16.1171875 254.067163,13 249.220521,13 C246.726537,13 244.937103,13.7547315 243.461496,15.975022 L243.392912,15.975022 Z M233,23.4167999 C233,17.0208933 229.353163,13 223.054462,13 C217.143276,13 213,16.7629251 213,23.0202537 C213,29.4886473 217.495182,33 223.511102,33 C227.656473,33 231.72853,30.9874214 232.752828,26.563586 L226.556766,26.563586 C225.848764,27.8107878 224.857981,28.2798209 223.479682,28.2798209 C220.825723,28.2798209 219.439045,26.8215542 219.439045,24.1139537 L233,24.1139537 L233,23.4167999 Z M185,23.4167999 C185,17.0208933 181.353163,13 175.054462,13 C169.143276,13 165,16.7629251 165,23.0202537 C165,29.4886473 169.495182,33 175.511102,33 C179.656473,33 183.72853,30.9874214 184.752828,26.563586 L178.556766,26.563586 C177.848764,27.8107878 176.857981,28.2798209 175.479682,28.2798209 C172.825723,28.2798209 171.439045,26.8215542 171.439045,24.1139537 L185,24.1139537 L185,23.4167999 Z M220,21 C220.412787,18.3775216 222.084128,17 224.089736,17 C225.951767,17 227.659002,18.5792507 228,21 L220,21 Z M207.459805,18.4471805 L209.499868,14.2066944 C207.728651,13.3304552 205.791381,13 203.852135,13 C200.112019,13 196.300738,15.0466901 196.300738,19.6560068 C196.300738,23.0202537 198.204402,24.0372029 200.112019,24.5893828 C202.015683,25.1330349 203.91737,25.2076538 203.91737,26.6701844 C203.91737,27.6935295 202.782683,28.1007355 202.015683,28.1007355 C200.51331,28.1007355 198.437665,27.1477454 197.204138,26.1968873 L195,30.8403155 C197.071692,32.2324912 199.475488,33 201.914866,33 C205.890221,33 210,30.9533099 210,26.013538 C210,22.5405607 207.861096,21.080162 205.020427,20.4576271 C204.182261,20.2742778 202.278598,20.0930604 202.278598,18.8117471 C202.278598,17.863021 203.486426,17.5325658 204.182261,17.5325658 C205.220084,17.5325658 206.522799,17.9035284 207.459805,18.4471805 Z M194,5.99657045 C194,8.19605602 192.197216,10 190.00232,10 C187.805104,10 186,8.19605602 186,5.99657045 C186,3.80623035 187.805104,2 190.00232,2 C192.197216,2 194,3.80623035 194,5.99657045 Z M186,32 L192,32 L192,13 L186,13 L186,32 Z M172,21 C172.414914,18.3775216 174.085786,17 176.097561,17 C177.950098,17 179.656854,18.5792507 180,21 L172,21 Z M159.575916,32 L159.575916,18.6069842 L164,18.6069842 L164,13.067273 L159.575916,13.067273 L159.575916,10.0068731 C159.575916,7.86545404 160.132794,6.83240766 161.770427,6.83240766 C162.609868,6.83240766 163.271934,7.12510414 164,7.45869203 L164,1.66287142 C163.131683,1.18723966 162.257179,1 161.283674,1 C158.876725,1 156.610027,2.0739378 155.042519,4.02811719 C153.299699,6.12864482 153.231636,8.04408498 153.231636,10.6654402 L153.231636,13.067273 L151,13.067273 L151,18.6069842 L153.231636,18.6069842 L153.231636,32 L159.575916,32 Z M145.577979,32 L145.577979,18.6069842 L150,18.6069842 L150,13.067273 L145.577979,13.067273 L145.577979,10.0068731 C145.577979,7.86545404 146.132794,6.83240766 147.772489,6.83240766 C148.605743,6.83240766 149.271934,7.12510414 150,7.45869203 L150,1.66287142 C149.131683,1.18723966 148.261304,1 147.283674,1 C144.88085,1 142.612089,2.0739378 141.042519,4.02811719 C139.301761,6.12864482 139.231636,8.04408498 139.231636,10.6654402 L139.231636,13.067273 L137,13.067273 L137,18.6069842 L139.231636,18.6069842 L139.231636,32 L145.577979,32 Z M135,5.99657045 C135,8.19605602 133.197216,10 131,10 C128.807425,10 127,8.19605602 127,5.99657045 C127,3.80623035 128.807425,2 131,2 C133.197216,2 135,3.80623035 135,5.99657045 Z M128,32 L134,32 L134,13 L128,13 L128,32 Z M125,13.6204029 L118.305957,13.6204029 L118.305957,15.4453683 C116.904017,13.8016203 114.624777,13 112.454384,13 C106.861864,13 103,17.6071847 103,22.9840102 C103,28.3565718 106.93588,33 112.526222,33 C114.733624,33 117.052048,32.1578723 118.231941,30.2945315 L118.305957,30.2945315 L118.305957,32.3753331 L125,32.3753331 L125,13.6204029 Z M113.502276,19 C116.347496,19 118,21.0671378 118,23.5227158 C118,26.0464412 116.347496,28 113.502276,28 C110.65478,28 109,26.0464412 109,23.5227158 C109,21.0671378 110.65478,19 113.502276,19 Z M95.3069157,20.9360353 C99.2303047,20.2531518 101.35692,17.0308609 101.35692,13.3052827 C101.35692,7.53940753 97.2121898,5 91.7480894,5 L81,5 L81,32 L88.1914332,32 L88.1914332,21.6168304 L88.2630437,21.6168304 L95.0486838,32 L104,32 L95.3069157,20.9360353 Z M89,10 L89.7351145,10 C92.2129771,10 95,10.5136476 95,14.0049628 C95,17.4913151 92.2129771,18 89.7351145,18 L89,18 L89,10 Z" id="Fill-267-Copy" fill="#000000"></path>
        </g>
    </g>
</svg>