<?xml version="1.0" encoding="utf-8"?>
<svg version="1.1" id="Layer_1" xmlns="http://www.w3.org/2000/svg" xmlns:xlink="http://www.w3.org/1999/xlink" x="0px" y="0px"
	 viewBox="0 0 89.6 21.2" style="enable-background:new 0 0 89.6 21.2;" xml:space="preserve">

<path d="M8,16.5c-2,0-4-0.8-5.5-2.2C1,12.8,0,10.7,0,8.6c0-2.2,0.8-4.2,2.3-5.7C3.8,1.3,5.8,0.5,8,0.5c1.4,0,2.7,0.4,3.9,1
	c0.4,0.3,0.6,0.6,0.8,1c0.1,0.4,0,0.9-0.2,1.2c-1.8,2.9-3.8,6-3.8,6c-0.4,0.7-1.4,0.9-2.1,0.4C5.9,9.8,5.8,8.9,6.2,8.2
	c0,0,1.4-2.2,2.9-4.6C7.4,3.2,5.6,3.8,4.4,5C3.5,6,3,7.2,3,8.6c0,1.3,0.6,2.6,1.6,3.5c1,0.9,2.3,1.4,3.6,1.4
	c1.5-0.1,2.8-0.8,3.8-1.9c0.5-0.7,1.5-0.8,2.1-0.3c0.7,0.5,0.8,1.5,0.3,2.1c-1.5,1.9-3.7,3-6,3.1C8.2,16.5,8.1,16.5,8,16.5z
	 M10.5,4.1C10.5,4.1,10.5,4.1,10.5,4.1C10.5,4.1,10.5,4.1,10.5,4.1z"/>
<path d="M23.9,16.4c-0.5,0-1.1-0.3-1.3-0.8L15.6,2.7c-0.4-0.7-0.1-1.6,0.6-2c0.7-0.4,1.6-0.1,2,0.6l5.7,10.5l5.7-10.5
	c0.4-0.7,1.3-1,2-0.6c0.7,0.4,1,1.3,0.6,2l-7.1,12.9C25,16.1,24.5,16.4,23.9,16.4z"/>
<path d="M40.6,16.4c-1.8,0-3.2-0.4-4.4-1.3c-3.5-2.6-3.5-8.2-1.1-11.5c1-1.4,3-3.1,5.2-3.1c2,0,3.5,1.1,4.1,3c0.3,1,0.7,2.1,2.1,3.4
	c1.5,1.3,2,3,1.5,4.7c-0.7,2.5-3.2,4.3-5.3,4.6C42,16.4,41.2,16.4,40.6,16.4z M40.2,3.5c-0.8,0-2,0.8-2.7,1.8
	c-1.5,2.1-1.6,5.9,0.4,7.3l0,0c0.7,0.5,1.8,1,4.3,0.6c1-0.2,2.5-1.3,2.9-2.5c0.1-0.4,0.2-1-0.6-1.6c-2.1-1.8-2.6-3.6-3-4.7
	C41.3,3.8,40.9,3.5,40.2,3.5z"/>
<circle cx="49" cy="2.5" r="2"/>
<g>
	<g>
		<path class="st0" d="M57.5,10.3v6.2h-2.1V0.7h5.8c1.7,0,3.1,0.4,4.1,1.3c1,0.9,1.5,2,1.5,3.5c0,1.5-0.5,2.7-1.4,3.5
			s-2.3,1.2-4.1,1.2H57.5z M57.5,8.6h3.7c1.1,0,2-0.3,2.6-0.8c0.6-0.5,0.9-1.3,0.9-2.3c0-0.9-0.3-1.7-0.9-2.3
			c-0.6-0.6-1.4-0.9-2.4-0.9h-3.9V8.6z"/>
		<path class="st0" d="M76.2,16.5c-0.1-0.2-0.2-0.6-0.3-1.2c-0.9,1-2,1.5-3.3,1.5c-1.2,0-2.1-0.3-2.8-1c-0.7-0.7-1.1-1.5-1.1-2.5
			c0-1.2,0.5-2.2,1.4-2.8c0.9-0.7,2.2-1,3.9-1h2V8.5c0-0.7-0.2-1.3-0.6-1.7s-1-0.6-1.9-0.6c-0.7,0-1.3,0.2-1.8,0.5
			c-0.5,0.4-0.7,0.8-0.7,1.3h-2c0-0.6,0.2-1.2,0.6-1.7c0.4-0.5,1-1,1.7-1.3c0.7-0.3,1.5-0.5,2.3-0.5c1.4,0,2.4,0.3,3.2,1
			c0.8,0.7,1.2,1.6,1.2,2.8v5.4c0,1.1,0.1,1.9,0.4,2.6v0.2H76.2z M72.9,15c0.6,0,1.2-0.2,1.8-0.5s1-0.7,1.2-1.3v-2.4h-1.6
			c-2.5,0-3.7,0.7-3.7,2.2c0,0.6,0.2,1.1,0.6,1.5C71.7,14.8,72.3,15,72.9,15z"/>
		<path class="st0" d="M84.7,13.5l2.7-8.8h2.1l-4.7,13.5c-0.7,2-1.9,2.9-3.5,2.9l-0.4,0L80.3,21v-1.6l0.5,0c0.7,0,1.2-0.1,1.6-0.4
			c0.4-0.3,0.7-0.8,0.9-1.5l0.4-1.2L79.6,4.8h2.2L84.7,13.5z"/>
	</g>
	<g>
		<path class="st0" d="M57.5,10.3v6.2h-2.1V0.7h5.8c1.7,0,3.1,0.4,4.1,1.3c1,0.9,1.5,2,1.5,3.5c0,1.5-0.5,2.7-1.4,3.5
			s-2.3,1.2-4.1,1.2H57.5z M57.5,8.6h3.7c1.1,0,2-0.3,2.6-0.8c0.6-0.5,0.9-1.3,0.9-2.3c0-0.9-0.3-1.7-0.9-2.3
			c-0.6-0.6-1.4-0.9-2.4-0.9h-3.9V8.6z"/>
		<path class="st0" d="M76.2,16.5c-0.1-0.2-0.2-0.6-0.3-1.2c-0.9,1-2,1.5-3.3,1.5c-1.2,0-2.1-0.3-2.8-1c-0.7-0.7-1.1-1.5-1.1-2.5
			c0-1.2,0.5-2.2,1.4-2.8c0.9-0.7,2.2-1,3.9-1h2V8.5c0-0.7-0.2-1.3-0.6-1.7s-1-0.6-1.9-0.6c-0.7,0-1.3,0.2-1.8,0.5
			c-0.5,0.4-0.7,0.8-0.7,1.3h-2c0-0.6,0.2-1.2,0.6-1.7c0.4-0.5,1-1,1.7-1.3c0.7-0.3,1.5-0.5,2.3-0.5c1.4,0,2.4,0.3,3.2,1
			c0.8,0.7,1.2,1.6,1.2,2.8v5.4c0,1.1,0.1,1.9,0.4,2.6v0.2H76.2z M72.9,15c0.6,0,1.2-0.2,1.8-0.5s1-0.7,1.2-1.3v-2.4h-1.6
			c-2.5,0-3.7,0.7-3.7,2.2c0,0.6,0.2,1.1,0.6,1.5C71.7,14.8,72.3,15,72.9,15z"/>
		<path class="st0" d="M84.7,13.5l2.7-8.8h2.1l-4.7,13.5c-0.7,2-1.9,2.9-3.5,2.9l-0.4,0L80.3,21v-1.6l0.5,0c0.7,0,1.2-0.1,1.6-0.4
			c0.4-0.3,0.7-0.8,0.9-1.5l0.4-1.2L79.6,4.8h2.2L84.7,13.5z"/>
	</g>
</g>
</svg>
