<?xml version="1.0" standalone="no"?>
<!DOCTYPE svg PUBLIC "-//W3C//DTD SVG 20010904//EN"
 "http://www.w3.org/TR/2001/REC-SVG-20010904/DTD/svg10.dtd">
<svg version="1.0" xmlns="http://www.w3.org/2000/svg"
 width="165.000000pt" height="64.000000pt" viewBox="0 0 165.000000 64.000000"
 preserveAspectRatio="xMidYMid meet">

<g transform="translate(0.000000,64.000000) scale(0.100000,-0.100000)"
fill="#000000" stroke="none">
<path d="M1350 603 c-70 -37 -110 -106 -110 -190 0 -52 1 -55 23 -49 12 3 41
6 65 6 l42 0 0 40 c0 27 7 47 20 60 18 18 20 31 18 91 l-3 70 -55 -28z"/>
<path d="M1430 566 c0 -61 2 -66 28 -78 36 -17 41 -65 12 -113 -11 -19 -64
-75 -117 -125 l-95 -90 102 0 103 0 33 35 c106 113 147 188 147 271 0 96 -70
164 -168 164 l-45 0 0 -64z"/>
<path d="M1083 568 l-73 -10 0 -64 0 -64 58 6 c31 4 73 9 92 13 l35 7 3 62 c3
71 13 67 -115 50z"/>
<path d="M903 543 l-33 -4 0 -265 0 -264 60 0 60 0 0 270 0 270 -27 -2 c-16 0
-43 -3 -60 -5z"/>
<path d="M640 504 c-8 -2 -32 -5 -52 -9 l-38 -6 0 -239 0 -240 60 0 60 0 0
244 c0 135 -3 247 -7 249 -5 2 -15 2 -23 1z"/>
<path d="M463 479 c-82 -10 -85 -12 -81 -66 l3 -48 60 3 c33 2 64 7 68 11 5 5
7 30 5 57 l-3 49 -52 -6z"/>
<path d="M288 453 c-16 -4 -18 -23 -18 -224 l0 -219 50 0 50 0 0 225 0 225
-32 -1 c-18 -1 -41 -3 -50 -6z"/>
<path d="M115 431 l-110 -16 -3 -48 -3 -48 68 5 c37 3 55 2 38 -2 l-30 -7 -3
-153 -3 -152 51 0 50 0 0 160 c0 145 -2 160 -17 162 -10 0 5 4 32 7 l50 6 3
53 c2 28 -1 51 -5 51 -4 -1 -57 -9 -118 -18z"/>
<path d="M1070 351 l-55 -6 -3 -62 -3 -63 61 0 60 0 0 70 c0 39 -1 69 -2 68
-2 -1 -28 -4 -58 -7z"/>
<path d="M408 293 c-26 -4 -28 -8 -28 -53 0 -27 4 -51 8 -54 4 -2 27 -2 50 1
l43 6 -3 51 c-3 55 -9 59 -70 49z"/>
<path d="M1338 143 l-108 -4 0 -64 0 -65 210 0 210 0 0 70 0 70 -102 -2 c-57
-1 -151 -4 -210 -5z"/>
<path d="M1058 133 l-48 -4 0 -60 0 -59 95 0 96 0 -3 63 -3 62 -45 1 c-25 0
-66 -1 -92 -3z"/>
<path d="M733 123 l-53 -4 0 -55 0 -54 80 0 81 0 -3 57 c-3 65 0 64 -105 56z"/>
<path d="M413 113 c-32 -4 -33 -5 -33 -54 l0 -49 70 0 70 0 0 55 0 55 -37 -2
c-21 0 -53 -3 -70 -5z"/>
</g>
</svg>
