<svg version="1.1" baseProfile="full" width="1016.75" height="199" viewbox="0 0 1016.75 199" xmlns="http://www.w3.org/2000/svg" xmlns:xlink="http://www.w3.org/1999/xlink" xmlns:ev="http://www.w3.org/2001/xml-events" style="font:bold normal 12pt Helvetica, Helvetica, sans-serif;;stroke-linejoin:round;stroke-linecap:round">
  <title >nomnoml</title>
  <desc >[cats.effect.*]&lt;:--[CatsConversions]

[Fork3]&lt;:--[Fiber3]

[BlockingIO3]&lt;:--[BlockingIO2]

[Primitives2]&lt;:--[Primitives3]
[Primitives3]&lt;:--[Ref3]
[Primitives3]&lt;:--[Semaphore3]
[Primitives3]&lt;:--[Promise3]

[Entropy]&lt;:--[Entropy2]
[Entropy2]&lt;:--[Entropy3]

[Clock]&lt;:--[Clock2]
[Clock2]&lt;:--[Clock3]

[UnsafeRun2]&lt;:--[UnsafeRun3]
</desc>
  <rect x="0" y="0" height="199" width="1016.75" style="stroke:none; fill:transparent;"></rect>
  <path d="M87.5 44.5 L87.5 64.5 L87.5 84.5 L87.5 84.5 " style="stroke:#33322E;fill:none;stroke-dasharray:6 6;stroke-width:3;"></path>
  <path d="M92.8 57.8 L87.5 57.8 L82.2 57.8 L87.5 44.5 Z" style="stroke:#33322E;fill:#eee8d5;stroke-dasharray:none;stroke-width:3;"></path>
  <path d="M233.5 44.5 L233.5 64.5 L233.5 84.5 L233.5 84.5 " style="stroke:#33322E;fill:none;stroke-dasharray:6 6;stroke-width:3;"></path>
  <path d="M238.8 57.8 L233.5 57.8 L228.2 57.8 L233.5 44.5 Z" style="stroke:#33322E;fill:#eee8d5;stroke-dasharray:none;stroke-width:3;"></path>
  <path d="M360 44.5 L360 64.5 L360 84.5 L360 84.5 " style="stroke:#33322E;fill:none;stroke-dasharray:6 6;stroke-width:3;"></path>
  <path d="M365.3 57.8 L360 57.8 L354.7 57.8 L360 44.5 Z" style="stroke:#33322E;fill:#eee8d5;stroke-dasharray:none;stroke-width:3;"></path>
  <path d="M505 44.5 L505 64.5 L505 84.5 L505 84.5 " style="stroke:#33322E;fill:none;stroke-dasharray:6 6;stroke-width:3;"></path>
  <path d="M510.3 57.8 L505 57.8 L499.7 57.8 L505 44.5 Z" style="stroke:#33322E;fill:#eee8d5;stroke-dasharray:none;stroke-width:3;"></path>
  <path d="M454.5 109.5 L316.8 135.5 L316.8 155.5 L316.8 155.5 " style="stroke:#33322E;fill:none;stroke-dasharray:6 6;stroke-width:3;"></path>
  <path d="M442.4 117.2 L441.4 112 L440.4 106.8 L454.5 109.5 Z" style="stroke:#33322E;fill:#eee8d5;stroke-dasharray:none;stroke-width:3;"></path>
  <path d="M475.9 115.5 L438.3 135.5 L438.3 155.5 L438.3 155.5 " style="stroke:#33322E;fill:none;stroke-dasharray:6 6;stroke-width:3;"></path>
  <path d="M466.6 126.5 L464.1 121.8 L461.6 117.1 L475.9 115.5 Z" style="stroke:#33322E;fill:#eee8d5;stroke-dasharray:none;stroke-width:3;"></path>
  <path d="M537 115.5 L578.3 135.5 L578.3 155.5 L578.3 155.5 " style="stroke:#33322E;fill:none;stroke-dasharray:6 6;stroke-width:3;"></path>
  <path d="M551.3 116.5 L549 121.3 L546.7 126.1 L537 115.5 Z" style="stroke:#33322E;fill:#eee8d5;stroke-dasharray:none;stroke-width:3;"></path>
  <path d="M704.8 44.5 L704.8 64.5 L704.8 84.5 L704.8 84.5 " style="stroke:#33322E;fill:none;stroke-dasharray:6 6;stroke-width:3;"></path>
  <path d="M710.1 57.8 L704.8 57.8 L699.4 57.8 L704.8 44.5 Z" style="stroke:#33322E;fill:#eee8d5;stroke-dasharray:none;stroke-width:3;"></path>
  <path d="M704.8 115.5 L704.8 135.5 L704.8 155.5 L704.8 155.5 " style="stroke:#33322E;fill:none;stroke-dasharray:6 6;stroke-width:3;"></path>
  <path d="M710.1 128.8 L704.8 128.8 L699.4 128.8 L704.8 115.5 Z" style="stroke:#33322E;fill:#eee8d5;stroke-dasharray:none;stroke-width:3;"></path>
  <path d="M821.3 44.5 L821.3 64.5 L821.3 84.5 L821.3 84.5 " style="stroke:#33322E;fill:none;stroke-dasharray:6 6;stroke-width:3;"></path>
  <path d="M826.6 57.8 L821.3 57.8 L815.9 57.8 L821.3 44.5 Z" style="stroke:#33322E;fill:#eee8d5;stroke-dasharray:none;stroke-width:3;"></path>
  <path d="M821.3 115.5 L821.3 135.5 L821.3 155.5 L821.3 155.5 " style="stroke:#33322E;fill:none;stroke-dasharray:6 6;stroke-width:3;"></path>
  <path d="M826.6 128.8 L821.3 128.8 L815.9 128.8 L821.3 115.5 Z" style="stroke:#33322E;fill:#eee8d5;stroke-dasharray:none;stroke-width:3;"></path>
  <path d="M949.8 44.5 L949.8 64.5 L949.8 84.5 L949.8 84.5 " style="stroke:#33322E;fill:none;stroke-dasharray:6 6;stroke-width:3;"></path>
  <path d="M955.1 57.8 L949.8 57.8 L944.4 57.8 L949.8 44.5 Z" style="stroke:#33322E;fill:#eee8d5;stroke-dasharray:none;stroke-width:3;"></path>
  <rect x="34.5" y="13.5" height="31" width="106" data-name="cats.effect.*" style="stroke:#33322E;fill:#eee8d5;stroke-dasharray:none;stroke-width:3;"></rect>
  <text x="87.5" y="35" style="fill: #33322E;font:bold  12pt Helvetica, Helvetica, sans-serif;text-anchor: middle;" data-name="cats.effect.*">cats.effect.*</text>
  <rect x="13.5" y="84.5" height="31" width="148" data-name="CatsConversions" style="stroke:#33322E;fill:#eee8d5;stroke-dasharray:none;stroke-width:3;"></rect>
  <text x="87.5" y="106" style="fill: #33322E;font:bold  12pt Helvetica, Helvetica, sans-serif;text-anchor: middle;" data-name="CatsConversions">CatsConversions</text>
  <rect x="203.5" y="13.5" height="31" width="60" data-name="Fork3" style="stroke:#33322E;fill:#eee8d5;stroke-dasharray:none;stroke-width:3;"></rect>
  <text x="233.5" y="35" style="fill: #33322E;font:bold  12pt Helvetica, Helvetica, sans-serif;text-anchor: middle;" data-name="Fork3">Fork3</text>
  <rect x="201.5" y="84.5" height="31" width="64" data-name="Fiber3" style="stroke:#33322E;fill:#eee8d5;stroke-dasharray:none;stroke-width:3;"></rect>
  <text x="233.5" y="106" style="fill: #33322E;font:bold  12pt Helvetica, Helvetica, sans-serif;text-anchor: middle;" data-name="Fiber3">Fiber3</text>
  <rect x="305.5" y="13.5" height="31" width="109" data-name="BlockingIO3" style="stroke:#33322E;fill:#eee8d5;stroke-dasharray:none;stroke-width:3;"></rect>
  <text x="360" y="35" style="fill: #33322E;font:bold  12pt Helvetica, Helvetica, sans-serif;text-anchor: middle;" data-name="BlockingIO3">BlockingIO3</text>
  <rect x="305.5" y="84.5" height="31" width="109" data-name="BlockingIO2" style="stroke:#33322E;fill:#eee8d5;stroke-dasharray:none;stroke-width:3;"></rect>
  <text x="360" y="106" style="fill: #33322E;font:bold  12pt Helvetica, Helvetica, sans-serif;text-anchor: middle;" data-name="BlockingIO2">BlockingIO2</text>
  <rect x="454.5" y="13.5" height="31" width="101" data-name="Primitives2" style="stroke:#33322E;fill:#eee8d5;stroke-dasharray:none;stroke-width:3;"></rect>
  <text x="505" y="35" style="fill: #33322E;font:bold  12pt Helvetica, Helvetica, sans-serif;text-anchor: middle;" data-name="Primitives2">Primitives2</text>
  <rect x="454.5" y="84.5" height="31" width="101" data-name="Primitives3" style="stroke:#33322E;fill:#eee8d5;stroke-dasharray:none;stroke-width:3;"></rect>
  <text x="505" y="106" style="fill: #33322E;font:bold  12pt Helvetica, Helvetica, sans-serif;text-anchor: middle;" data-name="Primitives3">Primitives3</text>
  <rect x="291.5" y="155.5" height="31" width="51" data-name="Ref3" style="stroke:#33322E;fill:#eee8d5;stroke-dasharray:none;stroke-width:3;"></rect>
  <text x="317" y="177" style="fill: #33322E;font:bold  12pt Helvetica, Helvetica, sans-serif;text-anchor: middle;" data-name="Ref3">Ref3</text>
  <rect x="382.5" y="155.5" height="31" width="112" data-name="Semaphore3" style="stroke:#33322E;fill:#eee8d5;stroke-dasharray:none;stroke-width:3;"></rect>
  <text x="438.5" y="177" style="fill: #33322E;font:bold  12pt Helvetica, Helvetica, sans-serif;text-anchor: middle;" data-name="Semaphore3">Semaphore3</text>
  <rect x="534.5" y="155.5" height="31" width="88" data-name="Promise3" style="stroke:#33322E;fill:#eee8d5;stroke-dasharray:none;stroke-width:3;"></rect>
  <text x="578.5" y="177" style="fill: #33322E;font:bold  12pt Helvetica, Helvetica, sans-serif;text-anchor: middle;" data-name="Promise3">Promise3</text>
  <rect x="666.5" y="13.5" height="31" width="76" data-name="Entropy" style="stroke:#33322E;fill:#eee8d5;stroke-dasharray:none;stroke-width:3;"></rect>
  <text x="704.5" y="35" style="fill: #33322E;font:bold  12pt Helvetica, Helvetica, sans-serif;text-anchor: middle;" data-name="Entropy">Entropy</text>
  <rect x="662.5" y="84.5" height="31" width="85" data-name="Entropy2" style="stroke:#33322E;fill:#eee8d5;stroke-dasharray:none;stroke-width:3;"></rect>
  <text x="705" y="106" style="fill: #33322E;font:bold  12pt Helvetica, Helvetica, sans-serif;text-anchor: middle;" data-name="Entropy2">Entropy2</text>
  <rect x="662.5" y="155.5" height="31" width="85" data-name="Entropy3" style="stroke:#33322E;fill:#eee8d5;stroke-dasharray:none;stroke-width:3;"></rect>
  <text x="705" y="177" style="fill: #33322E;font:bold  12pt Helvetica, Helvetica, sans-serif;text-anchor: middle;" data-name="Entropy3">Entropy3</text>
  <rect x="791.5" y="13.5" height="31" width="60" data-name="Clock" style="stroke:#33322E;fill:#eee8d5;stroke-dasharray:none;stroke-width:3;"></rect>
  <text x="821.5" y="35" style="fill: #33322E;font:bold  12pt Helvetica, Helvetica, sans-serif;text-anchor: middle;" data-name="Clock">Clock</text>
  <rect x="787.5" y="84.5" height="31" width="68" data-name="Clock2" style="stroke:#33322E;fill:#eee8d5;stroke-dasharray:none;stroke-width:3;"></rect>
  <text x="821.5" y="106" style="fill: #33322E;font:bold  12pt Helvetica, Helvetica, sans-serif;text-anchor: middle;" data-name="Clock2">Clock2</text>
  <rect x="787.5" y="155.5" height="31" width="68" data-name="Clock3" style="stroke:#33322E;fill:#eee8d5;stroke-dasharray:none;stroke-width:3;"></rect>
  <text x="821.5" y="177" style="fill: #33322E;font:bold  12pt Helvetica, Helvetica, sans-serif;text-anchor: middle;" data-name="Clock3">Clock3</text>
  <rect x="895.5" y="13.5" height="31" width="109" data-name="UnsafeRun2" style="stroke:#33322E;fill:#eee8d5;stroke-dasharray:none;stroke-width:3;"></rect>
  <text x="950" y="35" style="fill: #33322E;font:bold  12pt Helvetica, Helvetica, sans-serif;text-anchor: middle;" data-name="UnsafeRun2">UnsafeRun2</text>
  <rect x="895.5" y="84.5" height="31" width="109" data-name="UnsafeRun3" style="stroke:#33322E;fill:#eee8d5;stroke-dasharray:none;stroke-width:3;"></rect>
  <text x="950" y="106" style="fill: #33322E;font:bold  12pt Helvetica, Helvetica, sans-serif;text-anchor: middle;" data-name="UnsafeRun3">UnsafeRun3</text>
</svg>