<svg version="1.1" baseProfile="full" width="441.8" height="655.0" viewbox="0 0 441.75 655" xmlns="http://www.w3.org/2000/svg" xmlns:xlink="http://www.w3.org/1999/xlink" xmlns:ev="http://www.w3.org/2001/xml-events">
		<desc >[Functor2]&lt;--[Bifunctor2]
	[Bifunctor2]&lt;--[ApplicativeError2]
	[Functor2]&lt;--[Applicative2]
	[Applicative2]&lt;--[Guarantee2]
	[Applicative2]&lt;--[Monad2]
	[Guarantee2]&lt;--[ApplicativeError2]
	[ApplicativeError2]&lt;--[Error2]
	[Monad2]&lt;--[Error2]
	[Error2]&lt;--[Bracket2]
	[Bracket2]&lt;--[Panic2]
	[Panic2]&lt;--[IO2]
	[IO2]&lt;--[Async2]
	
	[Monad2]&lt;--[Parallel2]
	[Parallel2]&lt;--[Concurrent2]
	[Concurrent2]&lt;--[Async2]
	
	[Error2]&lt;--[Temporal2]</desc>
	<g stroke-width="1.0" text-align="left" font="12pt Helvetica, Arial, sans-serif" font-size="12pt" font-family="Helvetica" font-weight="bold" font-style="normal">
			<g font-family="Helvetica" font-size="12pt" font-weight="bold" font-style="normal" stroke-width="3.0" stroke-linejoin="round" stroke-linecap="round" stroke="#33322E">
				<g stroke="transparent" fill="transparent">
					<rect x="0.0" y="0.0" height="655.0" width="441.8" stroke="none"></rect>
				</g>
			<g transform="translate(8, 8)" fill="#33322E">
					<g transform="translate(20, 20)" fill="#33322E" font-family="Helvetica" font-size="12pt" font-weight="normal" font-style="normal">
						<g stroke-dasharray="6 6">
							<path d="M145.8 27.3 L48 51 L48 86.5 L48 86.5 L48 122 L48 122 L48 142 L48.0 142.0 " fill="none"></path>
						</g>
					<path d="M140.6 34.0 L145.8 27.3 L138.0 23.7 L152.3 25.7 Z"></path>
					<g stroke-dasharray="6 6">
							<path d="M48.0 179.7 L48 193 L87.43661971830986 213 L87.4 213.0 " fill="none"></path>
						</g>
					<path d="M53.3 186.3 L48.0 179.7 L42.7 186.3 L48.0 173.0 Z"></path>
					<g stroke-dasharray="6 6">
							<path d="M230.8 34.0 L264.25 51 L264.25 71 L264.3 71.0 " fill="none"></path>
						</g>
					<path d="M239.1 32.3 L230.8 34.0 L234.3 41.8 L224.8 31.0 Z"></path>
					<g stroke-dasharray="6 6">
							<path d="M224.9 104.8 L188 122 L188 142 L188.0 142.0 " fill="none"></path>
						</g>
					<path d="M221.1 112.5 L224.9 104.8 L216.6 102.8 L231.0 102.0 Z"></path>
					<g stroke-dasharray="6 6">
							<path d="M289.6 106.1 L310.25 122 L310.25 157.5 L310.25 157.5 L310.25 193 L310.25 193 L310.25 213 L310.3 213.0 " fill="none"></path>
						</g>
					<path d="M298.1 105.9 L289.6 106.1 L291.6 114.4 L284.3 102.0 Z"></path>
					<g stroke-dasharray="6 6">
							<path d="M188.0 179.7 L188 193 L148.56338028169014 213 L148.6 213.0 " fill="none"></path>
						</g>
					<path d="M193.3 186.3 L188.0 179.7 L182.7 186.3 L188.0 173.0 Z"></path>
					<g stroke-dasharray="6 6">
							<path d="M118.0 250.7 L118 264 L136.16901408450704 284 L136.2 284.0 " fill="none"></path>
						</g>
					<path d="M123.3 257.3 L118.0 250.7 L112.7 257.3 L118.0 244.0 Z"></path>
					<g stroke-dasharray="6 6">
							<path d="M285.9 248.2 L266.25 264 L182.25 289.7068965517241 L182.3 289.7 " fill="none"></path>
						</g>
					<path d="M284.0 256.5 L285.9 248.2 L277.3 248.2 L291.0 244.0 Z"></path>
					<g stroke-dasharray="6 6">
							<path d="M116.0 318.2 L85.25 335 L85.25 355 L85.3 355.0 " fill="none"></path>
						</g>
					<path d="M112.7 326.1 L116.0 318.2 L107.6 316.7 L121.9 315.0 Z"></path>
					<g stroke-dasharray="6 6">
							<path d="M85.3 392.7 L85.25 406 L85.25 426 L85.3 426.0 " fill="none"></path>
						</g>
					<path d="M90.6 399.3 L85.3 392.7 L79.9 399.3 L85.3 386.0 Z"></path>
					<g stroke-dasharray="6 6">
							<path d="M85.3 463.7 L85.25 477 L85.25 497 L85.3 497.0 " fill="none"></path>
						</g>
					<path d="M90.6 470.3 L85.3 463.7 L79.9 470.3 L85.3 457.0 Z"></path>
					<g stroke-dasharray="6 6">
							<path d="M85.3 534.7 L85.25 548 L157.75 571.6123853211009 L157.8 571.6 " fill="none"></path>
						</g>
					<path d="M90.6 541.3 L85.3 534.7 L79.9 541.3 L85.3 528.0 Z"></path>
					<g stroke-dasharray="6 6">
							<path d="M322.3 249.8 L330.25 264 L330.25 299.5 L330.25 299.5 L330.25 335 L330.25 335 L330.25 370.5 L330.25 370.5 L330.25 406 L330.25 406 L330.25 426 L330.3 426.0 " fill="none"></path>
						</g>
					<path d="M330.2 253.0 L322.3 249.8 L320.9 258.2 L319.0 244.0 Z"></path>
					<g stroke-dasharray="6 6">
							<path d="M330.3 463.7 L330.25 477 L330.25 497 L330.3 497.0 " fill="none"></path>
						</g>
					<path d="M335.6 470.3 L330.3 463.7 L324.9 470.3 L330.3 457.0 Z"></path>
					<g stroke-dasharray="6 6">
							<path d="M330.3 534.7 L330.25 548 L230.75 573.9724264705883 L230.8 574.0 " fill="none"></path>
						</g>
					<path d="M335.6 541.3 L330.3 534.7 L324.9 541.3 L330.3 528.0 Z"></path>
					<g stroke-dasharray="6 6">
							<path d="M188.5 314.2 L242.25 335 L242.25 355 L242.3 355.0 " fill="none"></path>
						</g>
					<path d="M196.6 311.7 L188.5 314.2 L192.8 321.6 L182.3 311.8 Z"></path>
					<g data-name="Functor2">
							<g fill="#eee8d5" stroke="#33322E" data-name="Functor2">
								<rect x="152.3" y="0.0" height="31.0" width="84.0" data-name="Functor2"></rect>
							</g>
						<g transform="translate(152.25, 0)" font-family="Helvetica" font-size="12pt" font-weight="bold" font-style="normal" data-name="Functor2">
								<g transform="translate(8, 8)" fill="#33322E" text-align="center" data-name="Functor2">
									<text x="34.0" y="13.5" stroke="none" text-anchor="middle" data-name="Functor2">Functor2</text>
								
								</g>
							</g>
						</g>
					<g data-name="Bifunctor2">
							<g fill="#eee8d5" stroke="#33322E" data-name="Bifunctor2">
								<rect x="0.0" y="142.0" height="31.0" width="96.0" data-name="Bifunctor2"></rect>
							</g>
						<g transform="translate(0, 142)" font-family="Helvetica" font-size="12pt" font-weight="bold" font-style="normal" data-name="Bifunctor2">
								<g transform="translate(8, 8)" fill="#33322E" text-align="center" data-name="Bifunctor2">
									<text x="40.0" y="13.5" stroke="none" text-anchor="middle" data-name="Bifunctor2">Bifunctor2</text>
								
								</g>
							</g>
						</g>
					<g data-name="ApplicativeError2">
							<g fill="#eee8d5" stroke="#33322E" data-name="ApplicativeError2">
								<rect x="43.5" y="213.0" height="31.0" width="149.0" data-name="ApplicativeError2"></rect>
							</g>
						<g transform="translate(43.5, 213)" font-family="Helvetica" font-size="12pt" font-weight="bold" font-style="normal" data-name="ApplicativeError2">
								<g transform="translate(8, 8)" fill="#33322E" text-align="center" data-name="ApplicativeError2">
									<text x="66.5" y="13.5" stroke="none" text-anchor="middle" data-name="ApplicativeError2">ApplicativeError2</text>
								
								</g>
							</g>
						</g>
					<g data-name="Applicative2">
							<g fill="#eee8d5" stroke="#33322E" data-name="Applicative2">
								<rect x="209.3" y="71.0" height="31.0" width="110.0" data-name="Applicative2"></rect>
							</g>
						<g transform="translate(209.25, 71)" font-family="Helvetica" font-size="12pt" font-weight="bold" font-style="normal" data-name="Applicative2">
								<g transform="translate(8, 8)" fill="#33322E" text-align="center" data-name="Applicative2">
									<text x="47.0" y="13.5" stroke="none" text-anchor="middle" data-name="Applicative2">Applicative2</text>
								
								</g>
							</g>
						</g>
					<g data-name="Guarantee2">
							<g fill="#eee8d5" stroke="#33322E" data-name="Guarantee2">
								<rect x="136.0" y="142.0" height="31.0" width="104.0" data-name="Guarantee2"></rect>
							</g>
						<g transform="translate(136, 142)" font-family="Helvetica" font-size="12pt" font-weight="bold" font-style="normal" data-name="Guarantee2">
								<g transform="translate(8, 8)" fill="#33322E" text-align="center" data-name="Guarantee2">
									<text x="44.0" y="13.5" stroke="none" text-anchor="middle" data-name="Guarantee2">Guarantee2</text>
								
								</g>
							</g>
						</g>
					<g data-name="Monad2">
							<g fill="#eee8d5" stroke="#33322E" data-name="Monad2">
								<rect x="272.3" y="213.0" height="31.0" width="76.0" data-name="Monad2"></rect>
							</g>
						<g transform="translate(272.25, 213)" font-family="Helvetica" font-size="12pt" font-weight="bold" font-style="normal" data-name="Monad2">
								<g transform="translate(8, 8)" fill="#33322E" text-align="center" data-name="Monad2">
									<text x="30.0" y="13.5" stroke="none" text-anchor="middle" data-name="Monad2">Monad2</text>
								
								</g>
							</g>
						</g>
					<g data-name="Error2">
							<g fill="#eee8d5" stroke="#33322E" data-name="Error2">
								<rect x="118.3" y="284.0" height="31.0" width="64.0" data-name="Error2"></rect>
							</g>
						<g transform="translate(118.25, 284)" font-family="Helvetica" font-size="12pt" font-weight="bold" font-style="normal" data-name="Error2">
								<g transform="translate(8, 8)" fill="#33322E" text-align="center" data-name="Error2">
									<text x="24.0" y="13.5" stroke="none" text-anchor="middle" data-name="Error2">Error2</text>
								
								</g>
							</g>
						</g>
					<g data-name="Bracket2">
							<g fill="#eee8d5" stroke="#33322E" data-name="Bracket2">
								<rect x="43.3" y="355.0" height="31.0" width="84.0" data-name="Bracket2"></rect>
							</g>
						<g transform="translate(43.25, 355)" font-family="Helvetica" font-size="12pt" font-weight="bold" font-style="normal" data-name="Bracket2">
								<g transform="translate(8, 8)" fill="#33322E" text-align="center" data-name="Bracket2">
									<text x="34.0" y="13.5" stroke="none" text-anchor="middle" data-name="Bracket2">Bracket2</text>
								
								</g>
							</g>
						</g>
					<g data-name="Panic2">
							<g fill="#eee8d5" stroke="#33322E" data-name="Panic2">
								<rect x="51.3" y="426.0" height="31.0" width="68.0" data-name="Panic2"></rect>
							</g>
						<g transform="translate(51.25, 426)" font-family="Helvetica" font-size="12pt" font-weight="bold" font-style="normal" data-name="Panic2">
								<g transform="translate(8, 8)" fill="#33322E" text-align="center" data-name="Panic2">
									<text x="26.0" y="13.5" stroke="none" text-anchor="middle" data-name="Panic2">Panic2</text>
								
								</g>
							</g>
						</g>
					<g data-name="IO2">
							<g fill="#eee8d5" stroke="#33322E" data-name="IO2">
								<rect x="64.3" y="497.0" height="31.0" width="42.0" data-name="IO2"></rect>
							</g>
						<g transform="translate(64.25, 497)" font-family="Helvetica" font-size="12pt" font-weight="bold" font-style="normal" data-name="IO2">
								<g transform="translate(8, 8)" fill="#33322E" text-align="center" data-name="IO2">
									<text x="13.0" y="13.5" stroke="none" text-anchor="middle" data-name="IO2">IO2</text>
								
								</g>
							</g>
						</g>
					<g data-name="Async2">
							<g fill="#eee8d5" stroke="#33322E" data-name="Async2">
								<rect x="157.8" y="568.0" height="31.0" width="73.0" data-name="Async2"></rect>
							</g>
						<g transform="translate(157.75, 568)" font-family="Helvetica" font-size="12pt" font-weight="bold" font-style="normal" data-name="Async2">
								<g transform="translate(8, 8)" fill="#33322E" text-align="center" data-name="Async2">
									<text x="28.5" y="13.5" stroke="none" text-anchor="middle" data-name="Async2">Async2</text>
								
								</g>
							</g>
						</g>
					<g data-name="Parallel2">
							<g fill="#eee8d5" stroke="#33322E" data-name="Parallel2">
								<rect x="289.3" y="426.0" height="31.0" width="82.0" data-name="Parallel2"></rect>
							</g>
						<g transform="translate(289.25, 426)" font-family="Helvetica" font-size="12pt" font-weight="bold" font-style="normal" data-name="Parallel2">
								<g transform="translate(8, 8)" fill="#33322E" text-align="center" data-name="Parallel2">
									<text x="33.0" y="13.5" stroke="none" text-anchor="middle" data-name="Parallel2">Parallel2</text>
								
								</g>
							</g>
						</g>
					<g data-name="Concurrent2">
							<g fill="#eee8d5" stroke="#33322E" data-name="Concurrent2">
								<rect x="274.8" y="497.0" height="31.0" width="111.0" data-name="Concurrent2"></rect>
							</g>
						<g transform="translate(274.75, 497)" font-family="Helvetica" font-size="12pt" font-weight="bold" font-style="normal" data-name="Concurrent2">
								<g transform="translate(8, 8)" fill="#33322E" text-align="center" data-name="Concurrent2">
									<text x="47.5" y="13.5" stroke="none" text-anchor="middle" data-name="Concurrent2">Concurrent2</text>
								
								</g>
							</g>
						</g>
					<g data-name="Temporal2">
							<g fill="#eee8d5" stroke="#33322E" data-name="Temporal2">
								<rect x="194.3" y="355.0" height="31.0" width="96.0" data-name="Temporal2"></rect>
							</g>
						<g transform="translate(194.25, 355)" font-family="Helvetica" font-size="12pt" font-weight="bold" font-style="normal" data-name="Temporal2">
								<g transform="translate(8, 8)" fill="#33322E" text-align="center" data-name="Temporal2">
									<text x="40.0" y="13.5" stroke="none" text-anchor="middle" data-name="Temporal2">Temporal2</text>
								
								</g>
							</g>
						</g>
					</g>
				</g>
			</g>
		</g>
	</svg>