<svg version="1.1" baseProfile="full" width="813.25" height="625" viewbox="0 0 813.25 625" xmlns="http://www.w3.org/2000/svg" xmlns:xlink="http://www.w3.org/1999/xlink" xmlns:ev="http://www.w3.org/2001/xml-events" style="font:bold normal 12pt Helvetica, Helvetica, sans-serif;;stroke-linejoin:round;stroke-linecap:round">
  <title >nomnoml</title>
  <desc >[BIOFunctor3]&lt;--[BIOBifunctor3]
[BIOBifunctor3]&lt;--[BIOApplicativeError3]
[BIOFunctor3]&lt;--[BIOApplicative3]
[BIOApplicative3]&lt;--[BIOGuarantee3]
[BIOApplicative3]&lt;--[BIOMonad3]
[BIOGuarantee3]&lt;--[BIOApplicativeError3]
[BIOApplicativeError3]&lt;--[BIOError3]
[BIOMonad3]&lt;--[BIOError3]
[BIOError3]&lt;--[BIOBracket3]
[BIOBracket3]&lt;--[BIOPanic3]
[BIOPanic3]&lt;--[BIO3]
[BIO3]&lt;--[BIOAsync3]
[BIOMonad3]&lt;--[BIOParallel3]
[BIOParallel3]&lt;--[BIOConcurrent3]
[BIOConcurrent3]&lt;--[BIOAsync3]
[BIOError3]&lt;--[BIOTemporal3]
[BIOFunctor3]&lt;--[BIOProfunctor]
[BIOProfunctor]&lt;--[BIOArrow]
[BIOArrow]&lt;--[BIOArrowChoice]
[BIOArrowChoice]&lt;--[BIOLocal]
[BIOApplicative3]&lt;--[BIOAsk]
[BIOMonad3]&lt;--[BIOMonadAsk]
[BIOAsk]&lt;--[BIOMonadAsk]
[BIOMonadAsk]&lt;--[BIOLocal]</desc>
  <rect x="0" y="0" height="625" width="813.25" style="stroke:none; fill:transparent;"></rect>
  <path d="M381.8 34.5 L75.5 64.5 L75.5 100 L75.5 100 L75.5 135.5 L75.5 135.5 L75.5 155.5 L75.5 155.5 " style="stroke:#33322E;fill:none;stroke-dasharray:6 6;stroke-width:3;"></path>
  <path d="M369 41.1 L375.1 35.2 L368 30.5 L381.8 34.5 Z" style="stroke:#33322E;fill:#33322E;stroke-dasharray:none;stroke-width:3;"></path>
  <path d="M75.5 186.5 L75.5 206.5 L111.6 226.5 L111.6 226.5 " style="stroke:#33322E;fill:none;stroke-dasharray:6 6;stroke-width:3;"></path>
  <path d="M80.8 199.8 L75.5 193.2 L70.2 199.8 L75.5 186.5 Z" style="stroke:#33322E;fill:#33322E;stroke-dasharray:none;stroke-width:3;"></path>
  <path d="M438.3 44.5 L438.3 64.5 L438.3 84.5 L438.3 84.5 " style="stroke:#33322E;fill:none;stroke-dasharray:6 6;stroke-width:3;"></path>
  <path d="M443.6 57.8 L438.3 51.2 L432.9 57.8 L438.3 44.5 Z" style="stroke:#33322E;fill:#33322E;stroke-dasharray:none;stroke-width:3;"></path>
  <path d="M368.8 112.7 L243.5 135.5 L243.5 155.5 L243.5 155.5 " style="stroke:#33322E;fill:none;stroke-dasharray:6 6;stroke-width:3;"></path>
  <path d="M356.6 120.3 L362.2 113.9 L354.7 109.8 L368.8 112.7 Z" style="stroke:#33322E;fill:#33322E;stroke-dasharray:none;stroke-width:3;"></path>
  <path d="M438.3 115.5 L438.3 135.5 L438.3 155.5 L438.3 155.5 " style="stroke:#33322E;fill:none;stroke-dasharray:6 6;stroke-width:3;"></path>
  <path d="M443.6 128.8 L438.3 122.2 L432.9 128.8 L438.3 115.5 Z" style="stroke:#33322E;fill:#33322E;stroke-dasharray:none;stroke-width:3;"></path>
  <path d="M243.5 186.5 L243.5 206.5 L184.9 226.5 L184.9 226.5 " style="stroke:#33322E;fill:none;stroke-dasharray:6 6;stroke-width:3;"></path>
  <path d="M248.8 199.8 L243.5 193.2 L238.2 199.8 L243.5 186.5 Z" style="stroke:#33322E;fill:#33322E;stroke-dasharray:none;stroke-width:3;"></path>
  <path d="M139.5 257.5 L139.5 277.5 L175.8 297.5 L175.8 297.5 " style="stroke:#33322E;fill:none;stroke-dasharray:6 6;stroke-width:3;"></path>
  <path d="M144.8 270.8 L139.5 264.2 L134.2 270.8 L139.5 257.5 Z" style="stroke:#33322E;fill:#33322E;stroke-dasharray:none;stroke-width:3;"></path>
  <path d="M407.3 186.5 L367.3 206.5 L367.3 242 L367.3 242 L367.3 277.5 L367.3 277.5 L250 303 L250 303 " style="stroke:#33322E;fill:none;stroke-dasharray:6 6;stroke-width:3;"></path>
  <path d="M397.7 197.2 L401.3 189.5 L392.9 187.7 L407.3 186.5 Z" style="stroke:#33322E;fill:#33322E;stroke-dasharray:none;stroke-width:3;"></path>
  <path d="M169.6 328.5 L125.3 348.5 L125.3 368.5 L125.3 368.5 " style="stroke:#33322E;fill:none;stroke-dasharray:6 6;stroke-width:3;"></path>
  <path d="M159.7 338.8 L163.5 331.2 L155.3 329.1 L169.6 328.5 Z" style="stroke:#33322E;fill:#33322E;stroke-dasharray:none;stroke-width:3;"></path>
  <path d="M125.3 399.5 L125.3 419.5 L125.3 439.5 L125.3 439.5 " style="stroke:#33322E;fill:none;stroke-dasharray:6 6;stroke-width:3;"></path>
  <path d="M130.6 412.8 L125.3 406.2 L119.9 412.8 L125.3 399.5 Z" style="stroke:#33322E;fill:#33322E;stroke-dasharray:none;stroke-width:3;"></path>
  <path d="M125.3 470.5 L125.3 490.5 L125.3 510.5 L125.3 510.5 " style="stroke:#33322E;fill:none;stroke-dasharray:6 6;stroke-width:3;"></path>
  <path d="M130.6 483.8 L125.3 477.2 L119.9 483.8 L125.3 470.5 Z" style="stroke:#33322E;fill:#33322E;stroke-dasharray:none;stroke-width:3;"></path>
  <path d="M125.3 541.5 L125.3 561.5 L204.5 583.2 L204.5 583.2 " style="stroke:#33322E;fill:none;stroke-dasharray:6 6;stroke-width:3;"></path>
  <path d="M130.6 554.8 L125.3 548.2 L119.9 554.8 L125.3 541.5 Z" style="stroke:#33322E;fill:#33322E;stroke-dasharray:none;stroke-width:3;"></path>
  <path d="M438.3 186.5 L438.3 206.5 L438.3 242 L438.3 242 L438.3 277.5 L438.3 277.5 L438.3 313 L438.3 313 L438.3 348.5 L438.3 348.5 L438.3 384 L438.3 384 L438.3 419.5 L438.3 419.5 L438.3 439.5 L438.3 439.5 " style="stroke:#33322E;fill:none;stroke-dasharray:6 6;stroke-width:3;"></path>
  <path d="M443.6 199.8 L438.3 193.2 L432.9 199.8 L438.3 186.5 Z" style="stroke:#33322E;fill:#33322E;stroke-dasharray:none;stroke-width:3;"></path>
  <path d="M438.3 470.5 L438.3 490.5 L438.3 510.5 L438.3 510.5 " style="stroke:#33322E;fill:none;stroke-dasharray:6 6;stroke-width:3;"></path>
  <path d="M443.6 483.8 L438.3 477.2 L432.9 483.8 L438.3 470.5 Z" style="stroke:#33322E;fill:#33322E;stroke-dasharray:none;stroke-width:3;"></path>
  <path d="M438.3 541.5 L438.3 561.5 L305.5 587.2 L305.5 587.2 " style="stroke:#33322E;fill:none;stroke-dasharray:6 6;stroke-width:3;"></path>
  <path d="M443.6 554.8 L438.3 548.2 L432.9 554.8 L438.3 541.5 Z" style="stroke:#33322E;fill:#33322E;stroke-dasharray:none;stroke-width:3;"></path>
  <path d="M250 325.3 L336.3 348.5 L336.3 368.5 L336.3 368.5 " style="stroke:#33322E;fill:none;stroke-dasharray:6 6;stroke-width:3;"></path>
  <path d="M264.3 323.7 L256.4 327.1 L261.5 334 L250 325.3 Z" style="stroke:#33322E;fill:#33322E;stroke-dasharray:none;stroke-width:3;"></path>
  <path d="M494.8 35.9 L728.8 64.5 L728.8 84.5 L728.8 84.5 " style="stroke:#33322E;fill:none;stroke-dasharray:6 6;stroke-width:3;"></path>
  <path d="M508.6 32.2 L501.4 36.7 L507.3 42.8 L494.8 35.9 Z" style="stroke:#33322E;fill:#33322E;stroke-dasharray:none;stroke-width:3;"></path>
  <path d="M728.8 115.5 L728.8 135.5 L728.8 155.5 L728.8 155.5 " style="stroke:#33322E;fill:none;stroke-dasharray:6 6;stroke-width:3;"></path>
  <path d="M734.1 128.8 L728.8 122.2 L723.4 128.8 L728.8 115.5 Z" style="stroke:#33322E;fill:#33322E;stroke-dasharray:none;stroke-width:3;"></path>
  <path d="M728.8 186.5 L728.8 206.5 L728.8 226.5 L728.8 226.5 " style="stroke:#33322E;fill:none;stroke-dasharray:6 6;stroke-width:3;"></path>
  <path d="M734.1 199.8 L728.8 193.2 L723.4 199.8 L728.8 186.5 Z" style="stroke:#33322E;fill:#33322E;stroke-dasharray:none;stroke-width:3;"></path>
  <path d="M728.8 257.5 L728.8 277.5 L690.9 297.5 L690.9 297.5 " style="stroke:#33322E;fill:none;stroke-dasharray:6 6;stroke-width:3;"></path>
  <path d="M734.1 270.8 L728.8 264.2 L723.4 270.8 L728.8 257.5 Z" style="stroke:#33322E;fill:#33322E;stroke-dasharray:none;stroke-width:3;"></path>
  <path d="M500.3 115.5 L580.3 135.5 L580.3 155.5 L580.3 155.5 " style="stroke:#33322E;fill:none;stroke-dasharray:6 6;stroke-width:3;"></path>
  <path d="M514.5 113.6 L506.7 117.1 L511.9 123.9 L500.3 115.5 Z" style="stroke:#33322E;fill:#33322E;stroke-dasharray:none;stroke-width:3;"></path>
  <path d="M469.4 186.5 L509.5 206.5 L534.7 226.5 L534.7 226.5 " style="stroke:#33322E;fill:none;stroke-dasharray:6 6;stroke-width:3;"></path>
  <path d="M483.7 187.7 L475.3 189.5 L478.9 197.2 L469.4 186.5 Z" style="stroke:#33322E;fill:#33322E;stroke-dasharray:none;stroke-width:3;"></path>
  <path d="M580.3 186.5 L580.3 206.5 L565.6 226.5 L565.6 226.5 " style="stroke:#33322E;fill:none;stroke-dasharray:6 6;stroke-width:3;"></path>
  <path d="M585.6 199.8 L580.3 193.2 L574.9 199.8 L580.3 186.5 Z" style="stroke:#33322E;fill:#33322E;stroke-dasharray:none;stroke-width:3;"></path>
  <path d="M554.3 257.5 L554.3 277.5 L618.5 298.8 L618.5 298.8 " style="stroke:#33322E;fill:none;stroke-dasharray:6 6;stroke-width:3;"></path>
  <path d="M559.6 270.8 L554.3 264.2 L548.9 270.8 L554.3 257.5 Z" style="stroke:#33322E;fill:#33322E;stroke-dasharray:none;stroke-width:3;"></path>
  <rect x="381.5" y="13.5" height="31" width="113" data-name="BIOFunctor3" style="stroke:#33322E;fill:#eee8d5;stroke-dasharray:none;stroke-width:3;"></rect>
  <text x="438" y="35" style="fill: #33322E;font:bold  12pt Helvetica, Helvetica, sans-serif;text-anchor: middle;" data-name="BIOFunctor3">BIOFunctor3</text>
  <rect x="13.5" y="155.5" height="31" width="124" data-name="BIOBifunctor3" style="stroke:#33322E;fill:#eee8d5;stroke-dasharray:none;stroke-width:3;"></rect>
  <text x="75.5" y="177" style="fill: #33322E;font:bold  12pt Helvetica, Helvetica, sans-serif;text-anchor: middle;" data-name="BIOBifunctor3">BIOBifunctor3</text>
  <rect x="50.5" y="226.5" height="31" width="178" data-name="BIOApplicativeError3" style="stroke:#33322E;fill:#eee8d5;stroke-dasharray:none;stroke-width:3;"></rect>
  <text x="139.5" y="248" style="fill: #33322E;font:bold  12pt Helvetica, Helvetica, sans-serif;text-anchor: middle;" data-name="BIOApplicativeError3">BIOApplicativeError3</text>
  <rect x="368.5" y="84.5" height="31" width="139" data-name="BIOApplicative3" style="stroke:#33322E;fill:#eee8d5;stroke-dasharray:none;stroke-width:3;"></rect>
  <text x="438" y="106" style="fill: #33322E;font:bold  12pt Helvetica, Helvetica, sans-serif;text-anchor: middle;" data-name="BIOApplicative3">BIOApplicative3</text>
  <rect x="177.5" y="155.5" height="31" width="132" data-name="BIOGuarantee3" style="stroke:#33322E;fill:#eee8d5;stroke-dasharray:none;stroke-width:3;"></rect>
  <text x="243.5" y="177" style="fill: #33322E;font:bold  12pt Helvetica, Helvetica, sans-serif;text-anchor: middle;" data-name="BIOGuarantee3">BIOGuarantee3</text>
  <rect x="385.5" y="155.5" height="31" width="105" data-name="BIOMonad3" style="stroke:#33322E;fill:#eee8d5;stroke-dasharray:none;stroke-width:3;"></rect>
  <text x="438" y="177" style="fill: #33322E;font:bold  12pt Helvetica, Helvetica, sans-serif;text-anchor: middle;" data-name="BIOMonad3">BIOMonad3</text>
  <rect x="158.5" y="297.5" height="31" width="92" data-name="BIOError3" style="stroke:#33322E;fill:#eee8d5;stroke-dasharray:none;stroke-width:3;"></rect>
  <text x="204.5" y="319" style="fill: #33322E;font:bold  12pt Helvetica, Helvetica, sans-serif;text-anchor: middle;" data-name="BIOError3">BIOError3</text>
  <rect x="69.5" y="368.5" height="31" width="112" data-name="BIOBracket3" style="stroke:#33322E;fill:#eee8d5;stroke-dasharray:none;stroke-width:3;"></rect>
  <text x="125.5" y="390" style="fill: #33322E;font:bold  12pt Helvetica, Helvetica, sans-serif;text-anchor: middle;" data-name="BIOBracket3">BIOBracket3</text>
  <rect x="77.5" y="439.5" height="31" width="96" data-name="BIOPanic3" style="stroke:#33322E;fill:#eee8d5;stroke-dasharray:none;stroke-width:3;"></rect>
  <text x="125.5" y="461" style="fill: #33322E;font:bold  12pt Helvetica, Helvetica, sans-serif;text-anchor: middle;" data-name="BIOPanic3">BIOPanic3</text>
  <rect x="98.5" y="510.5" height="31" width="53" data-name="BIO3" style="stroke:#33322E;fill:#eee8d5;stroke-dasharray:none;stroke-width:3;"></rect>
  <text x="125" y="532" style="fill: #33322E;font:bold  12pt Helvetica, Helvetica, sans-serif;text-anchor: middle;" data-name="BIO3">BIO3</text>
  <rect x="204.5" y="581.5" height="31" width="101" data-name="BIOAsync3" style="stroke:#33322E;fill:#eee8d5;stroke-dasharray:none;stroke-width:3;"></rect>
  <text x="255" y="603" style="fill: #33322E;font:bold  12pt Helvetica, Helvetica, sans-serif;text-anchor: middle;" data-name="BIOAsync3">BIOAsync3</text>
  <rect x="383.5" y="439.5" height="31" width="110" data-name="BIOParallel3" style="stroke:#33322E;fill:#eee8d5;stroke-dasharray:none;stroke-width:3;"></rect>
  <text x="438.5" y="461" style="fill: #33322E;font:bold  12pt Helvetica, Helvetica, sans-serif;text-anchor: middle;" data-name="BIOParallel3">BIOParallel3</text>
  <rect x="368.5" y="510.5" height="31" width="140" data-name="BIOConcurrent3" style="stroke:#33322E;fill:#eee8d5;stroke-dasharray:none;stroke-width:3;"></rect>
  <text x="438.5" y="532" style="fill: #33322E;font:bold  12pt Helvetica, Helvetica, sans-serif;text-anchor: middle;" data-name="BIOConcurrent3">BIOConcurrent3</text>
  <rect x="274.5" y="368.5" height="31" width="124" data-name="BIOTemporal3" style="stroke:#33322E;fill:#eee8d5;stroke-dasharray:none;stroke-width:3;"></rect>
  <text x="336.5" y="390" style="fill: #33322E;font:bold  12pt Helvetica, Helvetica, sans-serif;text-anchor: middle;" data-name="BIOTemporal3">BIOTemporal3</text>
  <rect x="665.5" y="84.5" height="31" width="126" data-name="BIOProfunctor" style="stroke:#33322E;fill:#eee8d5;stroke-dasharray:none;stroke-width:3;"></rect>
  <text x="728.5" y="106" style="fill: #33322E;font:bold  12pt Helvetica, Helvetica, sans-serif;text-anchor: middle;" data-name="BIOProfunctor">BIOProfunctor</text>
  <rect x="683.5" y="155.5" height="31" width="91" data-name="BIOArrow" style="stroke:#33322E;fill:#eee8d5;stroke-dasharray:none;stroke-width:3;"></rect>
  <text x="729" y="177" style="fill: #33322E;font:bold  12pt Helvetica, Helvetica, sans-serif;text-anchor: middle;" data-name="BIOArrow">BIOArrow</text>
  <rect x="656.5" y="226.5" height="31" width="144" data-name="BIOArrowChoice" style="stroke:#33322E;fill:#eee8d5;stroke-dasharray:none;stroke-width:3;"></rect>
  <text x="728.5" y="248" style="fill: #33322E;font:bold  12pt Helvetica, Helvetica, sans-serif;text-anchor: middle;" data-name="BIOArrowChoice">BIOArrowChoice</text>
  <rect x="618.5" y="297.5" height="31" width="86" data-name="BIOLocal" style="stroke:#33322E;fill:#eee8d5;stroke-dasharray:none;stroke-width:3;"></rect>
  <text x="661.5" y="319" style="fill: #33322E;font:bold  12pt Helvetica, Helvetica, sans-serif;text-anchor: middle;" data-name="BIOLocal">BIOLocal</text>
  <rect x="543.5" y="155.5" height="31" width="74" data-name="BIOAsk" style="stroke:#33322E;fill:#eee8d5;stroke-dasharray:none;stroke-width:3;"></rect>
  <text x="580.5" y="177" style="fill: #33322E;font:bold  12pt Helvetica, Helvetica, sans-serif;text-anchor: middle;" data-name="BIOAsk">BIOAsk</text>
  <rect x="491.5" y="226.5" height="31" width="125" data-name="BIOMonadAsk" style="stroke:#33322E;fill:#eee8d5;stroke-dasharray:none;stroke-width:3;"></rect>
  <text x="554" y="248" style="fill: #33322E;font:bold  12pt Helvetica, Helvetica, sans-serif;text-anchor: middle;" data-name="BIOMonadAsk">BIOMonadAsk</text>
</svg>