<svg version="1.1" baseProfile="full" width="868.25" height="625" viewbox="0 0 868.25 625" xmlns="http://www.w3.org/2000/svg" xmlns:xlink="http://www.w3.org/1999/xlink" xmlns:ev="http://www.w3.org/2001/xml-events" style="font:bold normal 12pt Helvetica, Helvetica, sans-serif;;stroke-linejoin:round;stroke-linecap:round">
  <title >nomnoml</title>
  <desc >[BIOFunctor3]&lt;--[BIOApplicative3]
[BIOApplicative3]&lt;--[BIOGuarantee3]
[BIOApplicative3]&lt;--[BIOMonad3]
[BIOGuarantee3]&lt;--[BIOApplicativeError3]
[BIOBifunctor3]&lt;--[BIOApplicativeError3]
[BIOApplicativeError3]&lt;--[BIOError3]
[BIOMonad3]&lt;--[BIOError3]
[BIOError3]&lt;--[BIOBracket3]
[BIOBracket3]&lt;--[BIOPanic3]
[BIOPanic3]&lt;--[BIO3]
[BIOParallel3]&lt;--[BIOConcurrent3]
[BIOConcurrent3]&lt;--[BIOAsync3]
[BIO3]&lt;--[BIOAsync3]
[BIOTemporal3]
[BIOProfunctor]&lt;--[BIOArrow]
[BIOArrow]&lt;--[BIOArrowChoice]
[BIOArrowChoice]&lt;--[BIOLocal]
[BIOAsk]&lt;--[BIOMonadAsk]
[BIOMonadAsk]&lt;--[BIOLocal]
</desc>
  <rect x="0" y="0" height="625" width="868.25" style="stroke:none; fill:transparent;"></rect>
  <path d="M254.3 44.5 L254.3 64.5 L254.3 84.5 L254.3 84.5 " style="stroke:#33322E;fill:none;stroke-dasharray:6 6;stroke-width:3;"></path>
  <path d="M259.6 57.8 L254.3 51.2 L248.9 57.8 L254.3 44.5 Z" style="stroke:#33322E;fill:#33322E;stroke-dasharray:none;stroke-width:3;"></path>
  <path d="M184.8 114.1 L79.5 135.5 L79.5 155.5 L79.5 155.5 " style="stroke:#33322E;fill:none;stroke-dasharray:6 6;stroke-width:3;"></path>
  <path d="M172.7 122 L178.2 115.4 L170.6 111.5 L184.8 114.1 Z" style="stroke:#33322E;fill:#33322E;stroke-dasharray:none;stroke-width:3;"></path>
  <path d="M313.2 115.5 L389.3 135.5 L389.3 171 L389.3 171 L389.3 206.5 L389.3 206.5 L389.3 226.5 L389.3 226.5 " style="stroke:#33322E;fill:none;stroke-dasharray:6 6;stroke-width:3;"></path>
  <path d="M327.4 113.7 L319.6 117.2 L324.7 124 L313.2 115.5 Z" style="stroke:#33322E;fill:#33322E;stroke-dasharray:none;stroke-width:3;"></path>
  <path d="M79.5 186.5 L79.5 206.5 L126.8 226.5 L126.8 226.5 " style="stroke:#33322E;fill:none;stroke-dasharray:6 6;stroke-width:3;"></path>
  <path d="M84.8 199.8 L79.5 193.2 L74.2 199.8 L79.5 186.5 Z" style="stroke:#33322E;fill:#33322E;stroke-dasharray:none;stroke-width:3;"></path>
  <path d="M247.5 186.5 L247.5 206.5 L200.2 226.5 L200.2 226.5 " style="stroke:#33322E;fill:none;stroke-dasharray:6 6;stroke-width:3;"></path>
  <path d="M252.8 199.8 L247.5 193.2 L242.2 199.8 L247.5 186.5 Z" style="stroke:#33322E;fill:#33322E;stroke-dasharray:none;stroke-width:3;"></path>
  <path d="M163.5 257.5 L163.5 277.5 L214.6 297.5 L214.6 297.5 " style="stroke:#33322E;fill:none;stroke-dasharray:6 6;stroke-width:3;"></path>
  <path d="M168.8 270.8 L163.5 264.2 L158.2 270.8 L163.5 257.5 Z" style="stroke:#33322E;fill:#33322E;stroke-dasharray:none;stroke-width:3;"></path>
  <path d="M389.3 257.5 L389.3 277.5 L300.3 300.9 L300.3 300.9 " style="stroke:#33322E;fill:none;stroke-dasharray:6 6;stroke-width:3;"></path>
  <path d="M394.6 270.8 L389.3 264.2 L383.9 270.8 L389.3 257.5 Z" style="stroke:#33322E;fill:#33322E;stroke-dasharray:none;stroke-width:3;"></path>
  <path d="M254.3 328.5 L254.3 348.5 L254.3 368.5 L254.3 368.5 " style="stroke:#33322E;fill:none;stroke-dasharray:6 6;stroke-width:3;"></path>
  <path d="M259.6 341.8 L254.3 335.2 L248.9 341.8 L254.3 328.5 Z" style="stroke:#33322E;fill:#33322E;stroke-dasharray:none;stroke-width:3;"></path>
  <path d="M254.3 399.5 L254.3 419.5 L254.3 439.5 L254.3 439.5 " style="stroke:#33322E;fill:none;stroke-dasharray:6 6;stroke-width:3;"></path>
  <path d="M259.6 412.8 L254.3 406.2 L248.9 412.8 L254.3 399.5 Z" style="stroke:#33322E;fill:#33322E;stroke-dasharray:none;stroke-width:3;"></path>
  <path d="M254.3 470.5 L254.3 490.5 L254.3 510.5 L254.3 510.5 " style="stroke:#33322E;fill:none;stroke-dasharray:6 6;stroke-width:3;"></path>
  <path d="M259.6 483.8 L254.3 477.2 L248.9 483.8 L254.3 470.5 Z" style="stroke:#33322E;fill:#33322E;stroke-dasharray:none;stroke-width:3;"></path>
  <path d="M111.3 470.5 L111.3 490.5 L111.3 510.5 L111.3 510.5 " style="stroke:#33322E;fill:none;stroke-dasharray:6 6;stroke-width:3;"></path>
  <path d="M116.6 483.8 L111.3 477.2 L105.9 483.8 L111.3 470.5 Z" style="stroke:#33322E;fill:#33322E;stroke-dasharray:none;stroke-width:3;"></path>
  <path d="M111.3 541.5 L111.3 561.5 L151.5 581.5 L151.5 581.5 " style="stroke:#33322E;fill:none;stroke-dasharray:6 6;stroke-width:3;"></path>
  <path d="M116.6 554.8 L111.3 548.2 L105.9 554.8 L111.3 541.5 Z" style="stroke:#33322E;fill:#33322E;stroke-dasharray:none;stroke-width:3;"></path>
  <path d="M254.3 541.5 L254.3 561.5 L214 581.5 L214 581.5 " style="stroke:#33322E;fill:none;stroke-dasharray:6 6;stroke-width:3;"></path>
  <path d="M259.6 554.8 L254.3 548.2 L248.9 554.8 L254.3 541.5 Z" style="stroke:#33322E;fill:#33322E;stroke-dasharray:none;stroke-width:3;"></path>
  <path d="M618.8 44.5 L618.8 64.5 L618.8 84.5 L618.8 84.5 " style="stroke:#33322E;fill:none;stroke-dasharray:6 6;stroke-width:3;"></path>
  <path d="M624.1 57.8 L618.8 51.2 L613.4 57.8 L618.8 44.5 Z" style="stroke:#33322E;fill:#33322E;stroke-dasharray:none;stroke-width:3;"></path>
  <path d="M618.8 115.5 L618.8 135.5 L618.8 155.5 L618.8 155.5 " style="stroke:#33322E;fill:none;stroke-dasharray:6 6;stroke-width:3;"></path>
  <path d="M624.1 128.8 L618.8 122.2 L613.4 128.8 L618.8 115.5 Z" style="stroke:#33322E;fill:#33322E;stroke-dasharray:none;stroke-width:3;"></path>
  <path d="M618.8 186.5 L618.8 206.5 L667.9 226.5 L667.9 226.5 " style="stroke:#33322E;fill:none;stroke-dasharray:6 6;stroke-width:3;"></path>
  <path d="M624.1 199.8 L618.8 193.2 L613.4 199.8 L618.8 186.5 Z" style="stroke:#33322E;fill:#33322E;stroke-dasharray:none;stroke-width:3;"></path>
  <path d="M793.3 115.5 L793.3 135.5 L793.3 155.5 L793.3 155.5 " style="stroke:#33322E;fill:none;stroke-dasharray:6 6;stroke-width:3;"></path>
  <path d="M798.6 128.8 L793.3 122.2 L787.9 128.8 L793.3 115.5 Z" style="stroke:#33322E;fill:#33322E;stroke-dasharray:none;stroke-width:3;"></path>
  <path d="M793.3 186.5 L793.3 206.5 L744.1 226.5 L744.1 226.5 " style="stroke:#33322E;fill:none;stroke-dasharray:6 6;stroke-width:3;"></path>
  <path d="M798.6 199.8 L793.3 193.2 L787.9 199.8 L793.3 186.5 Z" style="stroke:#33322E;fill:#33322E;stroke-dasharray:none;stroke-width:3;"></path>
  <rect x="197.5" y="13.5" height="31" width="113" data-name="BIOFunctor3" style="stroke:#33322E;fill:#eee8d5;stroke-dasharray:none;stroke-width:3;"></rect>
  <text x="254" y="35" style="fill: #33322E;font:bold  12pt Helvetica, Helvetica, sans-serif;text-anchor: middle;" data-name="BIOFunctor3">BIOFunctor3</text>
  <rect x="184.5" y="84.5" height="31" width="139" data-name="BIOApplicative3" style="stroke:#33322E;fill:#eee8d5;stroke-dasharray:none;stroke-width:3;"></rect>
  <text x="254" y="106" style="fill: #33322E;font:bold  12pt Helvetica, Helvetica, sans-serif;text-anchor: middle;" data-name="BIOApplicative3">BIOApplicative3</text>
  <rect x="13.5" y="155.5" height="31" width="132" data-name="BIOGuarantee3" style="stroke:#33322E;fill:#eee8d5;stroke-dasharray:none;stroke-width:3;"></rect>
  <text x="79.5" y="177" style="fill: #33322E;font:bold  12pt Helvetica, Helvetica, sans-serif;text-anchor: middle;" data-name="BIOGuarantee3">BIOGuarantee3</text>
  <rect x="336.5" y="226.5" height="31" width="105" data-name="BIOMonad3" style="stroke:#33322E;fill:#eee8d5;stroke-dasharray:none;stroke-width:3;"></rect>
  <text x="389" y="248" style="fill: #33322E;font:bold  12pt Helvetica, Helvetica, sans-serif;text-anchor: middle;" data-name="BIOMonad3">BIOMonad3</text>
  <rect x="74.5" y="226.5" height="31" width="178" data-name="BIOApplicativeError3" style="stroke:#33322E;fill:#eee8d5;stroke-dasharray:none;stroke-width:3;"></rect>
  <text x="163.5" y="248" style="fill: #33322E;font:bold  12pt Helvetica, Helvetica, sans-serif;text-anchor: middle;" data-name="BIOApplicativeError3">BIOApplicativeError3</text>
  <rect x="185.5" y="155.5" height="31" width="124" data-name="BIOBifunctor3" style="stroke:#33322E;fill:#eee8d5;stroke-dasharray:none;stroke-width:3;"></rect>
  <text x="247.5" y="177" style="fill: #33322E;font:bold  12pt Helvetica, Helvetica, sans-serif;text-anchor: middle;" data-name="BIOBifunctor3">BIOBifunctor3</text>
  <rect x="208.5" y="297.5" height="31" width="92" data-name="BIOError3" style="stroke:#33322E;fill:#eee8d5;stroke-dasharray:none;stroke-width:3;"></rect>
  <text x="254.5" y="319" style="fill: #33322E;font:bold  12pt Helvetica, Helvetica, sans-serif;text-anchor: middle;" data-name="BIOError3">BIOError3</text>
  <rect x="198.5" y="368.5" height="31" width="112" data-name="BIOBracket3" style="stroke:#33322E;fill:#eee8d5;stroke-dasharray:none;stroke-width:3;"></rect>
  <text x="254.5" y="390" style="fill: #33322E;font:bold  12pt Helvetica, Helvetica, sans-serif;text-anchor: middle;" data-name="BIOBracket3">BIOBracket3</text>
  <rect x="206.5" y="439.5" height="31" width="96" data-name="BIOPanic3" style="stroke:#33322E;fill:#eee8d5;stroke-dasharray:none;stroke-width:3;"></rect>
  <text x="254.5" y="461" style="fill: #33322E;font:bold  12pt Helvetica, Helvetica, sans-serif;text-anchor: middle;" data-name="BIOPanic3">BIOPanic3</text>
  <rect x="227.5" y="510.5" height="31" width="53" data-name="BIO3" style="stroke:#33322E;fill:#eee8d5;stroke-dasharray:none;stroke-width:3;"></rect>
  <text x="254" y="532" style="fill: #33322E;font:bold  12pt Helvetica, Helvetica, sans-serif;text-anchor: middle;" data-name="BIO3">BIO3</text>
  <rect x="56.5" y="439.5" height="31" width="110" data-name="BIOParallel3" style="stroke:#33322E;fill:#eee8d5;stroke-dasharray:none;stroke-width:3;"></rect>
  <text x="111.5" y="461" style="fill: #33322E;font:bold  12pt Helvetica, Helvetica, sans-serif;text-anchor: middle;" data-name="BIOParallel3">BIOParallel3</text>
  <rect x="41.5" y="510.5" height="31" width="140" data-name="BIOConcurrent3" style="stroke:#33322E;fill:#eee8d5;stroke-dasharray:none;stroke-width:3;"></rect>
  <text x="111.5" y="532" style="fill: #33322E;font:bold  12pt Helvetica, Helvetica, sans-serif;text-anchor: middle;" data-name="BIOConcurrent3">BIOConcurrent3</text>
  <rect x="132.5" y="581.5" height="31" width="101" data-name="BIOAsync3" style="stroke:#33322E;fill:#eee8d5;stroke-dasharray:none;stroke-width:3;"></rect>
  <text x="183" y="603" style="fill: #33322E;font:bold  12pt Helvetica, Helvetica, sans-serif;text-anchor: middle;" data-name="BIOAsync3">BIOAsync3</text>
  <rect x="391.5" y="13.5" height="31" width="124" data-name="BIOTemporal3" style="stroke:#33322E;fill:#eee8d5;stroke-dasharray:none;stroke-width:3;"></rect>
  <text x="453.5" y="35" style="fill: #33322E;font:bold  12pt Helvetica, Helvetica, sans-serif;text-anchor: middle;" data-name="BIOTemporal3">BIOTemporal3</text>
  <rect x="555.5" y="13.5" height="31" width="126" data-name="BIOProfunctor" style="stroke:#33322E;fill:#eee8d5;stroke-dasharray:none;stroke-width:3;"></rect>
  <text x="618.5" y="35" style="fill: #33322E;font:bold  12pt Helvetica, Helvetica, sans-serif;text-anchor: middle;" data-name="BIOProfunctor">BIOProfunctor</text>
  <rect x="573.5" y="84.5" height="31" width="91" data-name="BIOArrow" style="stroke:#33322E;fill:#eee8d5;stroke-dasharray:none;stroke-width:3;"></rect>
  <text x="619" y="106" style="fill: #33322E;font:bold  12pt Helvetica, Helvetica, sans-serif;text-anchor: middle;" data-name="BIOArrow">BIOArrow</text>
  <rect x="546.5" y="155.5" height="31" width="144" data-name="BIOArrowChoice" style="stroke:#33322E;fill:#eee8d5;stroke-dasharray:none;stroke-width:3;"></rect>
  <text x="618.5" y="177" style="fill: #33322E;font:bold  12pt Helvetica, Helvetica, sans-serif;text-anchor: middle;" data-name="BIOArrowChoice">BIOArrowChoice</text>
  <rect x="663.5" y="226.5" height="31" width="86" data-name="BIOLocal" style="stroke:#33322E;fill:#eee8d5;stroke-dasharray:none;stroke-width:3;"></rect>
  <text x="706.5" y="248" style="fill: #33322E;font:bold  12pt Helvetica, Helvetica, sans-serif;text-anchor: middle;" data-name="BIOLocal">BIOLocal</text>
  <rect x="756.5" y="84.5" height="31" width="74" data-name="BIOAsk" style="stroke:#33322E;fill:#eee8d5;stroke-dasharray:none;stroke-width:3;"></rect>
  <text x="793.5" y="106" style="fill: #33322E;font:bold  12pt Helvetica, Helvetica, sans-serif;text-anchor: middle;" data-name="BIOAsk">BIOAsk</text>
  <rect x="730.5" y="155.5" height="31" width="125" data-name="BIOMonadAsk" style="stroke:#33322E;fill:#eee8d5;stroke-dasharray:none;stroke-width:3;"></rect>
  <text x="793" y="177" style="fill: #33322E;font:bold  12pt Helvetica, Helvetica, sans-serif;text-anchor: middle;" data-name="BIOMonadAsk">BIOMonadAsk</text>
</svg>