<svg version="1.1" baseProfile="full" width="797.25" height="696" viewbox="0 0 797.25 696" xmlns="http://www.w3.org/2000/svg" xmlns:xlink="http://www.w3.org/1999/xlink" xmlns:ev="http://www.w3.org/2001/xml-events" style="font-weight:bold; font-size:12pt; font-family:'Calibri', Helvetica, sans-serif;;stroke-width:3;stroke-linejoin:round;stroke-linecap:round">
  <title >nomnoml</title>
  <desc >[BIOBifunctor3]&lt;:--[BIOError3]
[BIOFunctor3]&lt;:--[BIOApplicative3]
[BIOApplicative3]&lt;:--[BIOGuarantee3]
[BIOApplicative3]&lt;:--[BIOMonad3]
[BIOGuarantee3]&lt;:--[BIOError3]
[BIOError3]&lt;:--[BIOMonadError3]
[BIOMonad3]&lt;:--[BIOMonadError3]
[BIOMonadError3]&lt;:--[BIOBracket3]
[BIOBracket3]&lt;:--[BIOPanic3]
[BIOPanic3]&lt;:--[BIO3]
[BIO3]&lt;:--[BIOAsync3]
[BIOAsync3]&lt;:--[BIOTemporal3]

[BIOProfunctor]&lt;:--[BIOArrow]
[BIOArrow]&lt;:--[BIOArrowChoice]
[BIOArrowChoice]&lt;:--[BIOLocal]

[BIOAsk]&lt;:--[BIOMonadAsk]
[BIOMonadAsk]&lt;:--[BIOLocal]
</desc>
  <path d="M83.5 186.5 L83.5 206.5 L134.2 226.5 L134.2 226.5 " style="stroke:#33322E;fill:none;stroke-dasharray:6 6;"></path>
  <path d="M88.8 199.8 L83.5 199.8 L78.2 199.8 L83.5 186.5 Z" style="stroke:#33322E;fill:#eee8d5;stroke-dasharray:none;"></path>
  <path d="M335.5 44.5 L335.5 64.5 L335.5 84.5 L335.5 84.5 " style="stroke:#33322E;fill:none;stroke-dasharray:6 6;"></path>
  <path d="M340.8 57.8 L335.5 57.8 L330.2 57.8 L335.5 44.5 Z" style="stroke:#33322E;fill:#eee8d5;stroke-dasharray:none;"></path>
  <path d="M304.1 115.5 L263.5 135.5 L263.5 155.5 L263.5 155.5 " style="stroke:#33322E;fill:none;stroke-dasharray:6 6;"></path>
  <path d="M294.5 126.2 L292.1 121.4 L289.7 116.6 L304.1 115.5 Z" style="stroke:#33322E;fill:#eee8d5;stroke-dasharray:none;"></path>
  <path d="M359.5 115.5 L390.5 135.5 L390.5 171 L390.5 171 L390.5 206.5 L390.5 206.5 L390.5 226.5 L390.5 226.5 " style="stroke:#33322E;fill:none;stroke-dasharray:6 6;"></path>
  <path d="M373.6 118.2 L370.7 122.7 L367.8 127.2 L359.5 115.5 Z" style="stroke:#33322E;fill:#eee8d5;stroke-dasharray:none;"></path>
  <path d="M263.5 186.5 L263.5 206.5 L212.8 226.5 L212.8 226.5 " style="stroke:#33322E;fill:none;stroke-dasharray:6 6;"></path>
  <path d="M268.8 199.8 L263.5 199.8 L258.2 199.8 L263.5 186.5 Z" style="stroke:#33322E;fill:#eee8d5;stroke-dasharray:none;"></path>
  <path d="M173.5 257.5 L173.5 277.5 L214.1 297.5 L214.1 297.5 " style="stroke:#33322E;fill:none;stroke-dasharray:6 6;"></path>
  <path d="M178.8 270.8 L173.5 270.8 L168.2 270.8 L173.5 257.5 Z" style="stroke:#33322E;fill:#eee8d5;stroke-dasharray:none;"></path>
  <path d="M390.5 257.5 L390.5 277.5 L308.8 297.5 L308.8 297.5 " style="stroke:#33322E;fill:none;stroke-dasharray:6 6;"></path>
  <path d="M395.8 270.8 L390.5 270.8 L385.2 270.8 L390.5 257.5 Z" style="stroke:#33322E;fill:#eee8d5;stroke-dasharray:none;"></path>
  <path d="M245.5 328.5 L245.5 348.5 L245.5 368.5 L245.5 368.5 " style="stroke:#33322E;fill:none;stroke-dasharray:6 6;"></path>
  <path d="M250.8 341.8 L245.5 341.8 L240.2 341.8 L245.5 328.5 Z" style="stroke:#33322E;fill:#eee8d5;stroke-dasharray:none;"></path>
  <path d="M245.5 399.5 L245.5 419.5 L245.5 439.5 L245.5 439.5 " style="stroke:#33322E;fill:none;stroke-dasharray:6 6;"></path>
  <path d="M250.8 412.8 L245.5 412.8 L240.2 412.8 L245.5 399.5 Z" style="stroke:#33322E;fill:#eee8d5;stroke-dasharray:none;"></path>
  <path d="M245.5 470.5 L245.5 490.5 L245.5 510.5 L245.5 510.5 " style="stroke:#33322E;fill:none;stroke-dasharray:6 6;"></path>
  <path d="M250.8 483.8 L245.5 483.8 L240.2 483.8 L245.5 470.5 Z" style="stroke:#33322E;fill:#eee8d5;stroke-dasharray:none;"></path>
  <path d="M245.5 541.5 L245.5 561.5 L245.5 581.5 L245.5 581.5 " style="stroke:#33322E;fill:none;stroke-dasharray:6 6;"></path>
  <path d="M250.8 554.8 L245.5 554.8 L240.2 554.8 L245.5 541.5 Z" style="stroke:#33322E;fill:#eee8d5;stroke-dasharray:none;"></path>
  <path d="M245.5 612.5 L245.5 632.5 L245.5 652.5 L245.5 652.5 " style="stroke:#33322E;fill:none;stroke-dasharray:6 6;"></path>
  <path d="M250.8 625.8 L245.5 625.8 L240.2 625.8 L245.5 612.5 Z" style="stroke:#33322E;fill:#eee8d5;stroke-dasharray:none;"></path>
  <path d="M545.3 44.5 L545.3 64.5 L545.3 84.5 L545.3 84.5 " style="stroke:#33322E;fill:none;stroke-dasharray:6 6;"></path>
  <path d="M550.6 57.8 L545.3 57.8 L539.9 57.8 L545.3 44.5 Z" style="stroke:#33322E;fill:#eee8d5;stroke-dasharray:none;"></path>
  <path d="M545.3 115.5 L545.3 135.5 L545.3 155.5 L545.3 155.5 " style="stroke:#33322E;fill:none;stroke-dasharray:6 6;"></path>
  <path d="M550.6 128.8 L545.3 128.8 L539.9 128.8 L545.3 115.5 Z" style="stroke:#33322E;fill:#eee8d5;stroke-dasharray:none;"></path>
  <path d="M545.3 186.5 L545.3 206.5 L595.1 226.5 L595.1 226.5 " style="stroke:#33322E;fill:none;stroke-dasharray:6 6;"></path>
  <path d="M550.6 199.8 L545.3 199.8 L539.9 199.8 L545.3 186.5 Z" style="stroke:#33322E;fill:#eee8d5;stroke-dasharray:none;"></path>
  <path d="M722.3 115.5 L722.3 135.5 L722.3 155.5 L722.3 155.5 " style="stroke:#33322E;fill:none;stroke-dasharray:6 6;"></path>
  <path d="M727.6 128.8 L722.3 128.8 L716.9 128.8 L722.3 115.5 Z" style="stroke:#33322E;fill:#eee8d5;stroke-dasharray:none;"></path>
  <path d="M722.3 186.5 L722.3 206.5 L672.4 226.5 L672.4 226.5 " style="stroke:#33322E;fill:none;stroke-dasharray:6 6;"></path>
  <path d="M727.6 199.8 L722.3 199.8 L716.9 199.8 L722.3 186.5 Z" style="stroke:#33322E;fill:#eee8d5;stroke-dasharray:none;"></path>
  <rect x="13.5" y="155.5" height="31" width="140" style="stroke:#33322E;fill:#eee8d5;stroke-dasharray:none;"></rect>
  <text x="83.5" y="177" style="fill: #33322E;text-anchor: middle;">BIOBifunctor3</text>
  <rect x="122.5" y="226.5" height="31" width="102" style="stroke:#33322E;fill:#eee8d5;stroke-dasharray:none;"></rect>
  <text x="173.5" y="248" style="fill: #33322E;text-anchor: middle;">BIOError3</text>
  <rect x="275.5" y="13.5" height="31" width="121" style="stroke:#33322E;fill:#eee8d5;stroke-dasharray:none;"></rect>
  <text x="336" y="35" style="fill: #33322E;text-anchor: middle;">BIOFunctor3</text>
  <rect x="256.5" y="84.5" height="31" width="159" style="stroke:#33322E;fill:#eee8d5;stroke-dasharray:none;"></rect>
  <text x="336" y="106" style="fill: #33322E;text-anchor: middle;">BIOApplicative3</text>
  <rect x="193.5" y="155.5" height="31" width="140" style="stroke:#33322E;fill:#eee8d5;stroke-dasharray:none;"></rect>
  <text x="263.5" y="177" style="fill: #33322E;text-anchor: middle;">BIOGuarantee3</text>
  <rect x="337.5" y="226.5" height="31" width="106" style="stroke:#33322E;fill:#eee8d5;stroke-dasharray:none;"></rect>
  <text x="390.5" y="248" style="fill: #33322E;text-anchor: middle;">BIOMonad3</text>
  <rect x="168.5" y="297.5" height="31" width="154" style="stroke:#33322E;fill:#eee8d5;stroke-dasharray:none;"></rect>
  <text x="245.5" y="319" style="fill: #33322E;text-anchor: middle;">BIOMonadError3</text>
  <rect x="185.5" y="368.5" height="31" width="121" style="stroke:#33322E;fill:#eee8d5;stroke-dasharray:none;"></rect>
  <text x="246" y="390" style="fill: #33322E;text-anchor: middle;">BIOBracket3</text>
  <rect x="194.5" y="439.5" height="31" width="102" style="stroke:#33322E;fill:#eee8d5;stroke-dasharray:none;"></rect>
  <text x="245.5" y="461" style="fill: #33322E;text-anchor: middle;">BIOPanic3</text>
  <rect x="218.5" y="510.5" height="31" width="54" style="stroke:#33322E;fill:#eee8d5;stroke-dasharray:none;"></rect>
  <text x="245.5" y="532" style="fill: #33322E;text-anchor: middle;">BIO3</text>
  <rect x="194.5" y="581.5" height="31" width="102" style="stroke:#33322E;fill:#eee8d5;stroke-dasharray:none;"></rect>
  <text x="245.5" y="603" style="fill: #33322E;text-anchor: middle;">BIOAsync3</text>
  <rect x="180.5" y="652.5" height="31" width="130" style="stroke:#33322E;fill:#eee8d5;stroke-dasharray:none;"></rect>
  <text x="245.5" y="674" style="fill: #33322E;text-anchor: middle;">BIOTemporal3</text>
  <rect x="475.5" y="13.5" height="31" width="140" style="stroke:#33322E;fill:#eee8d5;stroke-dasharray:none;"></rect>
  <text x="545.5" y="35" style="fill: #33322E;text-anchor: middle;">BIOProfunctor</text>
  <rect x="499.5" y="84.5" height="31" width="92" style="stroke:#33322E;fill:#eee8d5;stroke-dasharray:none;"></rect>
  <text x="545.5" y="106" style="fill: #33322E;text-anchor: middle;">BIOArrow</text>
  <rect x="470.5" y="155.5" height="31" width="149" style="stroke:#33322E;fill:#eee8d5;stroke-dasharray:none;"></rect>
  <text x="545" y="177" style="fill: #33322E;text-anchor: middle;">BIOArrowChoice</text>
  <rect x="587.5" y="226.5" height="31" width="92" style="stroke:#33322E;fill:#eee8d5;stroke-dasharray:none;"></rect>
  <text x="633.5" y="248" style="fill: #33322E;text-anchor: middle;">BIOLocal</text>
  <rect x="685.5" y="84.5" height="31" width="73" style="stroke:#33322E;fill:#eee8d5;stroke-dasharray:none;"></rect>
  <text x="722" y="106" style="fill: #33322E;text-anchor: middle;">BIOAsk</text>
  <rect x="659.5" y="155.5" height="31" width="125" style="stroke:#33322E;fill:#eee8d5;stroke-dasharray:none;"></rect>
  <text x="722" y="177" style="fill: #33322E;text-anchor: middle;">BIOMonadAsk</text>
</svg>