<svg version="1.1" baseProfile="full" width="737.75" height="625" viewbox="0 0 737.75 625" xmlns="http://www.w3.org/2000/svg" xmlns:xlink="http://www.w3.org/1999/xlink" xmlns:ev="http://www.w3.org/2001/xml-events" style="font:bold normal 12pt Helvetica, Helvetica, sans-serif;;stroke-linejoin:round;stroke-linecap:round">
  <title >nomnoml</title>
  <desc >[Functor3]&lt;--[Applicative3]
[Applicative3]&lt;--[Guarantee3]
[Applicative3]&lt;--[Monad3]
[Guarantee3]&lt;--[ApplicativeError3]
[Bifunctor3]&lt;--[ApplicativeError3]
[ApplicativeError3]&lt;--[Error3]
[Monad3]&lt;--[Error3]
[Error3]&lt;--[Bracket3]
[Bracket3]&lt;--[Panic3]
[Panic3]&lt;--[IO3]
[Parallel3]&lt;--[Concurrent3]
[Concurrent3]&lt;--[Async3]
[IO3]&lt;--[Async3]
[Temporal3]
[Profunctor3]&lt;--[Arrow3]
[Arrow3]&lt;--[ArrowChoice3]
[ArrowChoice3]&lt;--[Local3]
[Ask3]&lt;--[MonadAsk3]
[MonadAsk3]&lt;--[Local3]</desc>
  <rect x="0" y="0" height="625" width="737.75" style="stroke:none; fill:transparent;"></rect>
  <path d="M211.8 44.5 L211.8 64.5 L211.8 84.5 L211.8 84.5 " style="stroke:#33322E;fill:none;stroke-dasharray:6 6;stroke-width:3;"></path>
  <path d="M217.1 57.8 L211.8 51.2 L206.4 57.8 L211.8 44.5 Z" style="stroke:#33322E;fill:#33322E;stroke-dasharray:none;stroke-width:3;"></path>
  <path d="M156.8 113.4 L65.5 135.5 L65.5 155.5 L65.5 155.5 " style="stroke:#33322E;fill:none;stroke-dasharray:6 6;stroke-width:3;"></path>
  <path d="M145.1 121.7 L150.3 114.9 L142.5 111.3 L156.8 113.4 Z" style="stroke:#33322E;fill:#33322E;stroke-dasharray:none;stroke-width:3;"></path>
  <path d="M261.5 115.5 L325.8 135.5 L325.8 171 L325.8 171 L325.8 206.5 L325.8 206.5 L325.8 226.5 L325.8 226.5 " style="stroke:#33322E;fill:none;stroke-dasharray:6 6;stroke-width:3;"></path>
  <path d="M275.8 114.4 L267.9 117.5 L272.7 124.6 L261.5 115.5 Z" style="stroke:#33322E;fill:#33322E;stroke-dasharray:none;stroke-width:3;"></path>
  <path d="M65.5 186.5 L65.5 206.5 L104.9 226.5 L104.9 226.5 " style="stroke:#33322E;fill:none;stroke-dasharray:6 6;stroke-width:3;"></path>
  <path d="M70.8 199.8 L65.5 193.2 L60.2 199.8 L65.5 186.5 Z" style="stroke:#33322E;fill:#33322E;stroke-dasharray:none;stroke-width:3;"></path>
  <path d="M205.5 186.5 L205.5 206.5 L166.1 226.5 L166.1 226.5 " style="stroke:#33322E;fill:none;stroke-dasharray:6 6;stroke-width:3;"></path>
  <path d="M210.8 199.8 L205.5 193.2 L200.2 199.8 L205.5 186.5 Z" style="stroke:#33322E;fill:#33322E;stroke-dasharray:none;stroke-width:3;"></path>
  <path d="M135.5 257.5 L135.5 277.5 L179.8 298.1 L179.8 298.1 " style="stroke:#33322E;fill:none;stroke-dasharray:6 6;stroke-width:3;"></path>
  <path d="M140.8 270.8 L135.5 264.2 L130.2 270.8 L135.5 257.5 Z" style="stroke:#33322E;fill:#33322E;stroke-dasharray:none;stroke-width:3;"></path>
  <path d="M325.8 257.5 L325.8 277.5 L243.8 303 L243.8 303 " style="stroke:#33322E;fill:none;stroke-dasharray:6 6;stroke-width:3;"></path>
  <path d="M331.1 270.8 L325.8 264.2 L320.4 270.8 L325.8 257.5 Z" style="stroke:#33322E;fill:#33322E;stroke-dasharray:none;stroke-width:3;"></path>
  <path d="M211.8 328.5 L211.8 348.5 L211.8 368.5 L211.8 368.5 " style="stroke:#33322E;fill:none;stroke-dasharray:6 6;stroke-width:3;"></path>
  <path d="M217.1 341.8 L211.8 335.2 L206.4 341.8 L211.8 328.5 Z" style="stroke:#33322E;fill:#33322E;stroke-dasharray:none;stroke-width:3;"></path>
  <path d="M211.8 399.5 L211.8 419.5 L211.8 439.5 L211.8 439.5 " style="stroke:#33322E;fill:none;stroke-dasharray:6 6;stroke-width:3;"></path>
  <path d="M217.1 412.8 L211.8 406.2 L206.4 412.8 L211.8 399.5 Z" style="stroke:#33322E;fill:#33322E;stroke-dasharray:none;stroke-width:3;"></path>
  <path d="M211.8 470.5 L211.8 490.5 L211.8 510.5 L211.8 510.5 " style="stroke:#33322E;fill:none;stroke-dasharray:6 6;stroke-width:3;"></path>
  <path d="M217.1 483.8 L211.8 477.2 L206.4 483.8 L211.8 470.5 Z" style="stroke:#33322E;fill:#33322E;stroke-dasharray:none;stroke-width:3;"></path>
  <path d="M95.3 470.5 L95.3 490.5 L95.3 510.5 L95.3 510.5 " style="stroke:#33322E;fill:none;stroke-dasharray:6 6;stroke-width:3;"></path>
  <path d="M100.6 483.8 L95.3 477.2 L89.9 483.8 L95.3 470.5 Z" style="stroke:#33322E;fill:#33322E;stroke-dasharray:none;stroke-width:3;"></path>
  <path d="M95.3 541.5 L95.3 561.5 L128.1 581.5 L128.1 581.5 " style="stroke:#33322E;fill:none;stroke-dasharray:6 6;stroke-width:3;"></path>
  <path d="M100.6 554.8 L95.3 548.2 L89.9 554.8 L95.3 541.5 Z" style="stroke:#33322E;fill:#33322E;stroke-dasharray:none;stroke-width:3;"></path>
  <path d="M211.8 541.5 L211.8 561.5 L178.9 581.5 L178.9 581.5 " style="stroke:#33322E;fill:none;stroke-dasharray:6 6;stroke-width:3;"></path>
  <path d="M217.1 554.8 L211.8 548.2 L206.4 554.8 L211.8 541.5 Z" style="stroke:#33322E;fill:#33322E;stroke-dasharray:none;stroke-width:3;"></path>
  <path d="M517.3 44.5 L517.3 64.5 L517.3 84.5 L517.3 84.5 " style="stroke:#33322E;fill:none;stroke-dasharray:6 6;stroke-width:3;"></path>
  <path d="M522.6 57.8 L517.3 51.2 L511.9 57.8 L517.3 44.5 Z" style="stroke:#33322E;fill:#33322E;stroke-dasharray:none;stroke-width:3;"></path>
  <path d="M517.3 115.5 L517.3 135.5 L517.3 155.5 L517.3 155.5 " style="stroke:#33322E;fill:none;stroke-dasharray:6 6;stroke-width:3;"></path>
  <path d="M522.6 128.8 L517.3 122.2 L511.9 128.8 L517.3 115.5 Z" style="stroke:#33322E;fill:#33322E;stroke-dasharray:none;stroke-width:3;"></path>
  <path d="M517.3 186.5 L517.3 206.5 L561.3 226.7 L561.3 226.7 " style="stroke:#33322E;fill:none;stroke-dasharray:6 6;stroke-width:3;"></path>
  <path d="M522.6 199.8 L517.3 193.2 L511.9 199.8 L517.3 186.5 Z" style="stroke:#33322E;fill:#33322E;stroke-dasharray:none;stroke-width:3;"></path>
  <path d="M672.3 115.5 L672.3 135.5 L672.3 155.5 L672.3 155.5 " style="stroke:#33322E;fill:none;stroke-dasharray:6 6;stroke-width:3;"></path>
  <path d="M677.6 128.8 L672.3 122.2 L666.9 128.8 L672.3 115.5 Z" style="stroke:#33322E;fill:#33322E;stroke-dasharray:none;stroke-width:3;"></path>
  <path d="M672.3 186.5 L672.3 206.5 L628.3 226.7 L628.3 226.7 " style="stroke:#33322E;fill:none;stroke-dasharray:6 6;stroke-width:3;"></path>
  <path d="M677.6 199.8 L672.3 193.2 L666.9 199.8 L672.3 186.5 Z" style="stroke:#33322E;fill:#33322E;stroke-dasharray:none;stroke-width:3;"></path>
  <rect x="169.5" y="13.5" height="31" width="84" data-name="Functor3" style="stroke:#33322E;fill:#eee8d5;stroke-dasharray:none;stroke-width:3;"></rect>
  <text x="211.5" y="35" style="fill: #33322E;font:bold  12pt Helvetica, Helvetica, sans-serif;text-anchor: middle;" data-name="Functor3">Functor3</text>
  <rect x="156.5" y="84.5" height="31" width="110" data-name="Applicative3" style="stroke:#33322E;fill:#eee8d5;stroke-dasharray:none;stroke-width:3;"></rect>
  <text x="211.5" y="106" style="fill: #33322E;font:bold  12pt Helvetica, Helvetica, sans-serif;text-anchor: middle;" data-name="Applicative3">Applicative3</text>
  <rect x="13.5" y="155.5" height="31" width="104" data-name="Guarantee3" style="stroke:#33322E;fill:#eee8d5;stroke-dasharray:none;stroke-width:3;"></rect>
  <text x="65.5" y="177" style="fill: #33322E;font:bold  12pt Helvetica, Helvetica, sans-serif;text-anchor: middle;" data-name="Guarantee3">Guarantee3</text>
  <rect x="287.5" y="226.5" height="31" width="76" data-name="Monad3" style="stroke:#33322E;fill:#eee8d5;stroke-dasharray:none;stroke-width:3;"></rect>
  <text x="325.5" y="248" style="fill: #33322E;font:bold  12pt Helvetica, Helvetica, sans-serif;text-anchor: middle;" data-name="Monad3">Monad3</text>
  <rect x="61.5" y="226.5" height="31" width="149" data-name="ApplicativeError3" style="stroke:#33322E;fill:#eee8d5;stroke-dasharray:none;stroke-width:3;"></rect>
  <text x="136" y="248" style="fill: #33322E;font:bold  12pt Helvetica, Helvetica, sans-serif;text-anchor: middle;" data-name="ApplicativeError3">ApplicativeError3</text>
  <rect x="157.5" y="155.5" height="31" width="96" data-name="Bifunctor3" style="stroke:#33322E;fill:#eee8d5;stroke-dasharray:none;stroke-width:3;"></rect>
  <text x="205.5" y="177" style="fill: #33322E;font:bold  12pt Helvetica, Helvetica, sans-serif;text-anchor: middle;" data-name="Bifunctor3">Bifunctor3</text>
  <rect x="179.5" y="297.5" height="31" width="64" data-name="Error3" style="stroke:#33322E;fill:#eee8d5;stroke-dasharray:none;stroke-width:3;"></rect>
  <text x="211.5" y="319" style="fill: #33322E;font:bold  12pt Helvetica, Helvetica, sans-serif;text-anchor: middle;" data-name="Error3">Error3</text>
  <rect x="169.5" y="368.5" height="31" width="84" data-name="Bracket3" style="stroke:#33322E;fill:#eee8d5;stroke-dasharray:none;stroke-width:3;"></rect>
  <text x="211.5" y="390" style="fill: #33322E;font:bold  12pt Helvetica, Helvetica, sans-serif;text-anchor: middle;" data-name="Bracket3">Bracket3</text>
  <rect x="177.5" y="439.5" height="31" width="68" data-name="Panic3" style="stroke:#33322E;fill:#eee8d5;stroke-dasharray:none;stroke-width:3;"></rect>
  <text x="211.5" y="461" style="fill: #33322E;font:bold  12pt Helvetica, Helvetica, sans-serif;text-anchor: middle;" data-name="Panic3">Panic3</text>
  <rect x="190.5" y="510.5" height="31" width="42" data-name="IO3" style="stroke:#33322E;fill:#eee8d5;stroke-dasharray:none;stroke-width:3;"></rect>
  <text x="211.5" y="532" style="fill: #33322E;font:bold  12pt Helvetica, Helvetica, sans-serif;text-anchor: middle;" data-name="IO3">IO3</text>
  <rect x="54.5" y="439.5" height="31" width="82" data-name="Parallel3" style="stroke:#33322E;fill:#eee8d5;stroke-dasharray:none;stroke-width:3;"></rect>
  <text x="95.5" y="461" style="fill: #33322E;font:bold  12pt Helvetica, Helvetica, sans-serif;text-anchor: middle;" data-name="Parallel3">Parallel3</text>
  <rect x="39.5" y="510.5" height="31" width="111" data-name="Concurrent3" style="stroke:#33322E;fill:#eee8d5;stroke-dasharray:none;stroke-width:3;"></rect>
  <text x="95" y="532" style="fill: #33322E;font:bold  12pt Helvetica, Helvetica, sans-serif;text-anchor: middle;" data-name="Concurrent3">Concurrent3</text>
  <rect x="117.5" y="581.5" height="31" width="73" data-name="Async3" style="stroke:#33322E;fill:#eee8d5;stroke-dasharray:none;stroke-width:3;"></rect>
  <text x="154" y="603" style="fill: #33322E;font:bold  12pt Helvetica, Helvetica, sans-serif;text-anchor: middle;" data-name="Async3">Async3</text>
  <rect x="327.5" y="13.5" height="31" width="96" data-name="Temporal3" style="stroke:#33322E;fill:#eee8d5;stroke-dasharray:none;stroke-width:3;"></rect>
  <text x="375.5" y="35" style="fill: #33322E;font:bold  12pt Helvetica, Helvetica, sans-serif;text-anchor: middle;" data-name="Temporal3">Temporal3</text>
  <rect x="463.5" y="13.5" height="31" width="107" data-name="Profunctor3" style="stroke:#33322E;fill:#eee8d5;stroke-dasharray:none;stroke-width:3;"></rect>
  <text x="517" y="35" style="fill: #33322E;font:bold  12pt Helvetica, Helvetica, sans-serif;text-anchor: middle;" data-name="Profunctor3">Profunctor3</text>
  <rect x="481.5" y="84.5" height="31" width="71" data-name="Arrow3" style="stroke:#33322E;fill:#eee8d5;stroke-dasharray:none;stroke-width:3;"></rect>
  <text x="517" y="106" style="fill: #33322E;font:bold  12pt Helvetica, Helvetica, sans-serif;text-anchor: middle;" data-name="Arrow3">Arrow3</text>
  <rect x="455.5" y="155.5" height="31" width="124" data-name="ArrowChoice3" style="stroke:#33322E;fill:#eee8d5;stroke-dasharray:none;stroke-width:3;"></rect>
  <text x="517.5" y="177" style="fill: #33322E;font:bold  12pt Helvetica, Helvetica, sans-serif;text-anchor: middle;" data-name="ArrowChoice3">ArrowChoice3</text>
  <rect x="561.5" y="226.5" height="31" width="67" data-name="Local3" style="stroke:#33322E;fill:#eee8d5;stroke-dasharray:none;stroke-width:3;"></rect>
  <text x="595" y="248" style="fill: #33322E;font:bold  12pt Helvetica, Helvetica, sans-serif;text-anchor: middle;" data-name="Local3">Local3</text>
  <rect x="645.5" y="84.5" height="31" width="54" data-name="Ask3" style="stroke:#33322E;fill:#eee8d5;stroke-dasharray:none;stroke-width:3;"></rect>
  <text x="672.5" y="106" style="fill: #33322E;font:bold  12pt Helvetica, Helvetica, sans-serif;text-anchor: middle;" data-name="Ask3">Ask3</text>
  <rect x="619.5" y="155.5" height="31" width="106" data-name="MonadAsk3" style="stroke:#33322E;fill:#eee8d5;stroke-dasharray:none;stroke-width:3;"></rect>
  <text x="672.5" y="177" style="fill: #33322E;font:bold  12pt Helvetica, Helvetica, sans-serif;text-anchor: middle;" data-name="MonadAsk3">MonadAsk3</text>
</svg>